<svg width="43" height="35" viewBox="-11 0 43 35" fill="none" xmlns="http://www.w3.org/2000/svg">
<path d="M16.5209 0.0464287C15.8652 0.159469 15.2661 0.425114 14.7631 0.83206C13.254 2.05855 12.9771 4.29675 14.1357 5.87367C15.2266 7.36015 17.38 7.7784 19.0078 6.81755C19.5391 6.50669 20.0986 5.90758 20.3699 5.35368C20.709 4.65848 20.7882 4.27414 20.7542 3.52242C20.726 2.80462 20.596 2.3468 20.2795 1.79856C19.5391 0.532503 17.9734 -0.196609 16.5209 0.0464287Z" fill="#C42225"/>
<path d="M9.55192 3.27377C8.44413 3.38681 7.90153 3.74854 6.22853 5.48936C4.12598 7.67104 2.83166 9.16883 1.48648 10.9718C0.633027 12.1248 0.356078 12.5713 0.158257 13.1309C0.0169561 13.5378 0 13.6565 0 14.3461C0.00565203 14.9961 0.0226081 15.1656 0.129997 15.4765C0.33347 16.0417 0.649983 16.5221 1.27736 17.2004C2.16473 18.1669 6.71461 23.3272 6.80504 23.4685C6.88982 23.6154 6.85591 23.9037 5.99115 29.6857C5.75941 31.2343 5.56725 32.6643 5.56725 32.8621C5.56725 33.7495 6.12114 34.5408 6.96329 34.8686C7.42111 35.0438 8.12196 35.0438 8.57977 34.8686C9.02628 34.6934 9.52366 34.2243 9.7554 33.7551C9.94757 33.3708 9.98148 33.1673 10.7388 28.024C10.8745 27.0744 11.1062 25.5088 11.2475 24.548C11.4793 22.9937 11.5019 22.7563 11.451 22.4228C11.3549 21.8294 11.2023 21.462 10.8349 20.9759L10.6993 20.795L10.4789 21.1229C10.1002 21.6881 9.6254 21.9424 8.9302 21.9424C8.55717 21.9424 8.42152 21.9198 8.16152 21.7955C7.77153 21.6202 7.40415 21.2642 7.2572 20.925C7.15546 20.6933 5.81593 14.2783 5.75376 13.7187C5.73115 13.5152 5.80463 13.1592 6.10419 12.0514C7.28546 7.66539 7.73197 6.06021 7.80545 5.90761C7.85632 5.81718 7.99196 5.63631 8.11631 5.50066C8.8002 4.76025 10.0945 4.74895 10.818 5.4724C11.1684 5.82283 11.3436 6.19021 11.3719 6.65933C11.3945 6.9928 11.3323 7.25279 10.7106 9.53621C10.3319 10.9153 10.0323 12.0514 10.0436 12.0627C10.0719 12.0853 12.3158 9.66055 12.6549 9.23665C12.9827 8.82971 13.271 8.2419 13.401 7.73322C13.5423 7.18497 13.4914 6.13934 13.2992 5.63066C12.7001 4.03114 11.2193 3.09855 9.55192 3.27377Z" fill="#C42225"/>
<path d="M9.11673 5.43854C8.72674 5.54593 8.43849 5.76071 8.26893 6.07157C8.13328 6.32591 7.7885 7.54109 6.61853 11.8932C6.42071 12.6392 6.23985 13.3401 6.21724 13.4475C6.18898 13.5888 6.3755 14.6005 6.86722 17.0026C7.24591 18.8508 7.57938 20.4673 7.61894 20.5916C7.65851 20.7273 7.7885 20.9251 7.94676 21.0833C8.78326 21.9198 10.1906 21.4451 10.3489 20.2695C10.3771 20.0829 10.2358 19.2747 9.74976 16.8895C9.40498 15.1657 9.11108 13.7414 9.09977 13.7244C9.08282 13.7018 9.30325 12.871 9.57454 11.8818C10.9423 6.98154 10.9536 6.93633 10.9197 6.65373C10.818 5.78331 9.95888 5.20115 9.11673 5.43854Z" fill="#C42225"/>
<path d="M10.6654 12.1135C9.86279 12.9726 9.68758 13.1931 9.63671 13.3965C9.58019 13.617 9.6254 13.9165 10.1341 16.4656C10.4449 18.0199 10.7219 19.3933 10.7445 19.5177L10.7841 19.7438L10.8293 19.4442C10.8519 19.2803 10.9254 17.9351 10.9932 16.4486L11.1232 13.7526L11.3945 12.4244C11.5414 11.6953 11.6601 11.0905 11.6488 11.0849C11.6432 11.0736 11.1967 11.537 10.6654 12.1135Z" fill="#C42225"/>
<path d="M17.4365 17.9634C16.5491 18.3986 15.8087 18.7547 15.7918 18.7547C15.7748 18.7547 15.6335 18.4212 15.4866 18.02C15.3339 17.613 15.1926 17.2908 15.17 17.2965C15.1135 17.3191 12.2197 20.2808 12.2536 20.2808C12.2705 20.2808 12.4853 20.1564 12.7284 20.0038C12.9714 19.8512 13.5649 19.4838 14.0396 19.1843L14.9157 18.6417L15.1983 19.3199C15.3622 19.7043 15.5148 19.9869 15.5487 19.9756C15.6505 19.936 19.1265 17.1778 19.0756 17.1778C19.0586 17.1778 18.3239 17.5339 17.4365 17.9634Z" fill="#C42225"/>
<path d="M14.8818 20.8911C13.8362 21.2529 12.9884 21.5581 12.994 21.5694C13.0166 21.5863 15.5374 21.3716 15.8709 21.3207L16.08 21.2868V22.0611C16.08 22.7789 16.0857 22.8354 16.1818 22.7959C16.2326 22.7733 17.1426 22.5472 18.1995 22.2872C19.2565 22.0328 20.223 21.7955 20.3473 21.7616C20.5734 21.705 19.2847 21.7107 17.5326 21.7785L16.8091 21.8068L16.8374 21.4846C16.9335 20.4672 16.9335 20.2242 16.86 20.2299C16.8204 20.2299 15.9274 20.5294 14.8818 20.8911Z" fill="#C42225"/>
<path d="M12.6662 23.1745C12.6831 23.1971 12.7227 23.2197 12.751 23.2197C12.8075 23.2197 14.8648 24.0901 15.2774 24.2823C15.3735 24.3332 15.4583 24.384 15.4583 24.4066C15.4583 24.4236 15.3057 24.7119 15.1192 25.0453C14.9326 25.3844 14.78 25.6783 14.78 25.6953C14.78 25.7179 15.1305 25.8253 15.56 25.927C16.2439 26.0966 18.7421 26.7635 19.0473 26.8653C19.279 26.9388 18.9795 26.7692 17.5043 25.9949C16.6904 25.5653 16.0065 25.1979 15.9896 25.181C15.967 25.164 16.1365 24.8475 16.3569 24.4858C16.583 24.124 16.7582 23.8188 16.7469 23.8132C16.7356 23.8075 15.9952 23.6775 15.0909 23.5362C14.1922 23.3893 13.2709 23.2367 13.0449 23.1971C12.8188 23.1575 12.6492 23.1462 12.6662 23.1745Z" fill="#C42225"/>
</svg>
