<svg width="43" height="35" viewBox="-13.5 0 43 35" fill="none" xmlns="http://www.w3.org/2000/svg">
<path d="M0.0443041 0.132252C-0.0320233 0.325613 -0.0218463 0.37141 0.171516 0.737782C0.380145 1.14486 0.6651 1.56721 1.07218 2.07606C1.43346 2.52893 1.5047 2.67141 1.79475 3.44486C2.88368 6.35039 4.25249 8.75216 6.57793 11.8307C7.12749 12.5584 7.64651 13.2911 7.72793 13.4539C8.00271 13.9984 7.95182 14.2019 7.2547 15.4028C6.55249 16.6088 6.08435 17.6265 5.82483 18.5272C5.61621 19.2548 5.61112 19.3057 5.76886 19.3769C5.98767 19.4787 6.08435 19.4482 6.35913 19.2039C6.50669 19.0716 6.70005 18.9342 6.79165 18.8986C7.02572 18.8019 7.35647 18.8121 7.60072 18.9241C7.83479 19.0309 7.90603 19.1072 8.10448 19.4533C8.34364 19.8705 8.57262 19.896 8.9797 19.5398C9.36643 19.1988 9.69209 19.1123 10.0737 19.2446C10.3536 19.3413 10.5113 19.4838 10.6742 19.7942C10.8421 20.1097 10.8981 20.1504 11.1525 20.1504C11.2746 20.1504 11.3764 20.0944 11.5596 19.9265C11.6919 19.7993 11.8801 19.6721 11.9717 19.6415C12.1804 19.5754 12.1753 19.5805 12.5671 18.0183C12.8012 17.0668 12.8317 16.9955 13.3965 15.8303C14.1343 14.3139 14.2412 13.9628 14.2412 13.1334C14.2412 12.6499 14.1598 12.2785 13.8596 11.3524C13.6713 10.7672 13.6102 10.4772 13.5492 9.90216C13.1828 6.49796 12.5009 3.82141 11.1881 0.646189L10.9235 -4.95911e-05H5.50935H0.095189L0.0443041 0.132252ZM8.17063 5.638C8.20625 5.65836 8.45559 6.14685 8.72528 6.71676C9.98722 9.40349 10.3282 10.1515 10.3129 10.2431C10.3027 10.2991 10.2518 10.3754 10.1959 10.411C9.97705 10.5586 9.88545 10.4314 9.26974 9.10836C8.94917 8.42141 8.48103 7.42915 8.23169 6.89995C7.98236 6.37075 7.77882 5.9026 7.77882 5.8619C7.77882 5.67871 8.01797 5.54132 8.17063 5.638ZM12.8368 12.6805C12.8775 12.7466 12.9385 12.9502 12.9742 13.1435C13.0556 13.5913 12.9843 13.978 12.7197 14.5327C12.5111 14.9652 12.3992 15.0619 12.2109 14.9652C12.0379 14.8685 12.043 14.7413 12.2414 14.319C12.4551 13.8661 12.5111 13.4336 12.4144 13.0469C12.3636 12.8484 12.3686 12.7924 12.4348 12.6907C12.5366 12.5329 12.7401 12.5278 12.8368 12.6805Z" fill="#C42225"/>
<path d="M3.18901 18.9699C2.82773 19.3567 2.51224 19.9164 2.32396 20.5067C2.17131 21.0053 2.15604 22.0739 2.29852 22.5929C2.48171 23.2595 3.01091 24.1958 3.23989 24.2518C3.39764 24.2976 3.60626 24.15 3.60626 23.9923C3.60626 23.921 3.52485 23.7531 3.42817 23.6208C3.16865 23.2544 2.90405 22.6642 2.81246 22.2367C2.59365 21.2089 2.98038 19.9622 3.75383 19.2091C3.98281 18.9903 4.00317 18.9089 3.88104 18.7359C3.73348 18.5272 3.55538 18.5832 3.18901 18.9699Z" fill="#C42225"/>
<path d="M7.01555 19.3719C6.97484 19.3872 6.83236 19.4991 6.70515 19.6161C6.3744 19.9265 6.05382 20.0029 5.59077 19.8909C5.50427 19.8655 5.45338 20.2115 5.44321 20.8984C5.43812 21.3208 5.43812 21.3208 5.56533 21.3208C5.73325 21.3208 5.94188 21.2139 6.09962 21.0409C6.41511 20.7051 6.90869 20.6135 7.32086 20.8221C7.49387 20.9086 7.59564 21.0155 7.73303 21.2445C7.92639 21.5701 8.11975 21.7075 8.3182 21.6566C8.38436 21.6363 8.55228 21.5243 8.68967 21.4022C8.98989 21.1376 9.22905 21.046 9.56489 21.0765C9.89055 21.1122 10.1501 21.2953 10.3536 21.6363C10.5164 21.9212 10.72 22.0586 10.8981 22.0128C10.9591 21.9976 11.1474 21.8703 11.3102 21.733C11.6257 21.4633 11.6308 21.4582 11.9259 20.4863L12.0023 20.2319L11.8649 20.3642C11.641 20.5728 11.3917 20.6746 11.1118 20.6746C10.7047 20.6746 10.4248 20.4761 10.1704 20.013C9.96179 19.6365 9.64121 19.6111 9.33082 19.9469C8.81179 20.5066 7.98236 20.3794 7.62617 19.6874C7.57528 19.5907 7.49896 19.4788 7.45825 19.4482C7.37174 19.3719 7.11732 19.3312 7.01555 19.3719Z" fill="#C42225"/>
<path d="M4.11001 19.9928C3.97262 20.1353 3.81997 20.3388 3.75891 20.4507C3.51466 20.9392 3.43833 21.6465 3.57572 22.1707C3.6724 22.5269 3.95736 23.0408 4.13037 23.1731C4.26267 23.2698 4.28302 23.2698 4.41023 23.1985C4.61377 23.0866 4.61377 22.9034 4.40006 22.5828C3.93191 21.8755 3.99298 20.9647 4.54762 20.349C4.75116 20.1251 4.77152 19.9928 4.62395 19.8452C4.4713 19.6926 4.37461 19.718 4.11001 19.9928Z" fill="#C42225"/>
<path d="M13.7629 20.3184C13.6357 20.41 13.6458 20.5576 13.7985 20.8985C14.0071 21.3666 14.1038 21.8093 14.1089 22.3131C14.114 22.8881 14.0326 23.2087 13.7578 23.7888C13.5135 24.2976 13.1777 24.7047 12.7096 25.066C12.4653 25.2543 12.4093 25.3255 12.4093 25.4425C12.4093 25.5494 12.45 25.6206 12.5416 25.6817C12.6688 25.7631 12.6841 25.7631 12.8571 25.6664C13.1624 25.5087 13.8952 24.7454 14.1292 24.3434C14.7806 23.2239 14.8773 22.0689 14.4142 20.8527C14.2056 20.2981 14.0122 20.1403 13.7629 20.3184Z" fill="#C42225"/>
<path d="M12.6231 21.1784C12.5417 21.2598 12.5467 21.4226 12.6434 21.6567C12.8419 22.135 12.8215 22.6896 12.5773 23.1781C12.4399 23.4631 12.1498 23.7837 11.9412 23.8956C11.7631 23.9872 11.7122 24.1806 11.8191 24.3485C11.9768 24.5877 12.2313 24.491 12.6689 24.033C13.3151 23.3562 13.5339 22.4352 13.249 21.6007C13.1167 21.2089 13.0403 21.1173 12.8521 21.1173C12.7605 21.1173 12.6587 21.1427 12.6231 21.1784Z" fill="#C42225"/>
<path d="M6.41 21.448C6.13523 21.7075 5.8808 21.8297 5.6162 21.8297H5.43301L5.46354 22.2215C5.50425 22.7252 5.5297 22.8474 5.59585 22.8474C5.62129 22.8474 5.75359 22.7456 5.88589 22.6184C6.1454 22.364 6.42018 22.2622 6.71531 22.3029C7.03589 22.3436 7.27505 22.4912 7.41753 22.7354C7.63633 23.1018 7.74319 23.2036 7.93655 23.2341C8.09939 23.2595 8.14518 23.2392 8.4047 23.0102C8.86775 22.6082 9.27483 22.5522 9.74297 22.8219C9.87527 22.8982 9.99231 23.0305 10.089 23.1985C10.3383 23.6615 10.5673 23.7226 10.8777 23.4173C11.0304 23.2748 11.1067 23.1323 11.2085 22.827L11.3357 22.4301L11.2237 22.4657C10.7301 22.6336 10.2569 22.4912 10.0279 22.1095C9.79385 21.7075 9.70226 21.621 9.48346 21.5905C9.29009 21.5651 9.25956 21.5803 9.01023 21.8195C8.69983 22.1197 8.47085 22.2113 8.12483 22.1706C7.77881 22.1299 7.54474 21.9671 7.36155 21.6465C7.0766 21.1376 6.80691 21.0766 6.41 21.448Z" fill="#C42225"/>
<path d="M6.43035 22.8576C6.37438 22.8881 6.22172 23.0102 6.08433 23.1323C5.95203 23.2494 5.77902 23.3613 5.7027 23.3817L5.56531 23.4122L5.6111 23.9058C5.63146 24.1755 5.6569 24.4045 5.66199 24.4096C5.66708 24.4146 5.78411 24.3638 5.9215 24.2976C6.0538 24.2264 6.22681 24.1704 6.29805 24.1704C6.71022 24.1704 7.08677 24.4248 7.2954 24.8319C7.4277 25.0965 7.49385 25.1372 7.75845 25.1372C7.89584 25.1372 7.98234 25.0914 8.15026 24.9286C8.2673 24.8115 8.43522 24.6843 8.52681 24.6487C8.76088 24.5469 9.17305 24.5571 9.39694 24.6742C9.62084 24.7912 9.71752 24.893 9.85491 25.1677C9.97703 25.4069 10.0584 25.4883 10.2162 25.5036C10.3231 25.5188 10.3485 25.4629 10.552 24.8166L10.7657 24.1195H10.5571C10.2264 24.1144 9.93633 23.9567 9.77349 23.687C9.5496 23.3003 9.44783 23.2036 9.24429 23.168C9.07637 23.1425 9.03566 23.1629 8.80668 23.3766C8.36907 23.7837 7.99761 23.86 7.54473 23.6361C7.37172 23.5496 7.2496 23.4427 7.16818 23.3003C6.89849 22.8525 6.66951 22.7151 6.43035 22.8576Z" fill="#C42225"/>
<path d="M5.93679 24.9387L5.73325 25.1423L5.73834 26.5009C5.7536 29.0757 5.57042 30.2155 4.91909 31.625C4.45095 32.6478 4.33391 33.2279 4.49166 33.7571C4.76135 34.6578 5.74852 34.9224 7.90604 34.6781C8.97971 34.5509 9.93126 34.5916 11.0355 34.8053C12.1193 35.014 12.8979 35.0496 13.8952 34.9376C14.4702 34.8715 14.7144 34.8664 14.9587 34.9071C15.3963 34.9733 15.8899 34.9733 16.1443 34.8969C16.2664 34.8613 16.4445 34.7443 16.5717 34.6171C16.76 34.4237 16.7855 34.3728 16.7855 34.1693C16.7855 33.7418 16.6328 33.6197 16.0273 33.5637C15.091 33.4823 14.1547 33.2075 13.3813 32.7903C12.8724 32.5155 10.8828 31.2688 10.5063 30.994C9.44276 30.2053 9.34608 29.381 10.0229 26.7044C10.1043 26.3788 10.1704 26.0989 10.1704 26.0836C10.1704 26.0684 10.0839 26.0175 9.98214 25.9768C9.7379 25.875 9.52927 25.6766 9.40206 25.4323C9.19343 25.0202 8.86267 24.9693 8.52683 25.2949C8.22661 25.585 8.0536 25.6664 7.72794 25.6664C7.37683 25.6715 7.15294 25.5494 6.92905 25.239C6.62883 24.8166 6.52706 24.7301 6.3286 24.7301C6.18104 24.7301 6.10471 24.7708 5.93679 24.9387ZM7.51931 29.9255C7.58546 30.0476 7.58546 30.0832 7.4786 30.3325C7.36157 30.6022 7.35648 30.7752 7.45316 31.3553C7.4786 31.5233 7.46843 31.5538 7.35139 31.6047C7.14785 31.6963 6.98502 31.5589 6.88325 31.2078C6.78148 30.8567 6.80692 30.4954 6.96467 30.129C7.13259 29.7423 7.36666 29.6558 7.51931 29.9255Z" fill="#C42225"/>
</svg>
