<svg width="43" height="35" viewBox="-13.5 0 43 35" fill="none" xmlns="http://www.w3.org/2000/svg">
<path d="M5.64027 0.0783806C5.50983 0.334045 5.07155 1.64367 4.8211 2.53589C4.09585 5.14992 3.60539 7.97788 3.30799 11.312C3.14624 13.159 3.1932 13.9051 3.55321 14.9069C3.64191 15.1521 3.78279 15.5435 3.86627 15.773C3.94454 16.0078 4.05411 16.4305 4.09585 16.7122C4.1689 17.1661 4.17411 17.3383 4.11672 18.0323C4.00193 19.4776 4.1115 20.7507 4.43499 21.7629C4.78979 22.8638 5.27503 23.3438 6.26117 23.5525C7.59167 23.8343 9.72046 23.0725 10.7901 21.9298C11.2179 21.4759 11.291 21.2046 11.291 20.1298C11.291 18.9036 11.0614 17.9384 10.4614 16.6079C10.2787 16.2061 10.0805 15.7469 10.0179 15.5904C9.84568 15.1521 9.60046 14.0043 9.56393 13.446C9.53784 13.0129 9.54828 12.8929 9.65263 12.559C9.79351 12.0894 10.3205 11.025 11.2544 9.32925C12.2197 7.58134 12.2406 7.54482 12.7728 6.51173C13.6441 4.82121 14.4059 3.07852 14.7607 1.95673C14.9642 1.31496 14.9694 1.20017 14.7816 1.15843C14.6981 1.14278 14.6042 1.12191 14.5729 1.11147C14.5363 1.09582 14.4842 1.1793 14.4476 1.30974C14.0094 2.96373 12.7363 5.68734 10.6492 9.4336C10.0179 10.5658 9.33436 11.9433 9.21435 12.3137C9.01608 12.9451 9.01608 13.5399 9.20913 14.4373C9.25087 14.6512 9.27696 14.8339 9.26653 14.8443C9.25609 14.8547 9.07347 14.813 8.86477 14.7452C8.32735 14.5782 7.11686 14.5782 6.5064 14.7452C6.03159 14.8756 5.35852 15.1834 4.96198 15.4548C4.80545 15.5591 4.67501 15.6374 4.66979 15.6322C4.65935 15.6217 4.54978 15.2878 4.41934 14.886C3.94454 13.4303 3.94975 13.0442 4.47674 10.3989C5.28025 6.39172 5.8281 4.23162 6.70467 1.65932C6.92381 1.01234 7.11164 0.438398 7.1273 0.375786C7.15338 0.276651 7.10642 0.260998 6.45944 0.130558C5.63505 -0.0364075 5.70288 -0.031189 5.64027 0.0783806Z" fill="#C42225"/>
<path d="M13.2997 16.4096C13.2319 16.4566 13.0441 16.6027 12.8875 16.7383C12.4701 17.0827 12.3919 17.1401 12.4388 17.0618C12.5067 16.947 12.4284 16.7383 12.3136 16.7383C12.1779 16.7383 12.1466 16.8009 12.0736 17.234C11.9588 17.8653 11.9275 17.8184 12.5014 17.8601C12.9188 17.8914 13.0128 17.8862 13.0806 17.8184C13.1902 17.7088 13.1276 17.5731 12.971 17.5731C12.898 17.5731 12.8301 17.5575 12.8145 17.5314C12.8041 17.5105 12.9919 17.3279 13.2319 17.1296C13.7067 16.7331 13.7485 16.6757 13.6702 16.5296C13.5763 16.3574 13.4406 16.3157 13.2997 16.4096Z" fill="#C42225"/>
<path d="M12.945 18.7941C12.7102 19.0915 12.5223 19.3628 12.5223 19.3889C12.5223 19.415 12.7937 19.608 13.1276 19.8167C13.7746 20.2237 13.8894 20.2446 13.9207 19.9628C13.9311 19.8637 13.8946 19.8011 13.7746 19.7124C13.6859 19.6498 13.6233 19.5871 13.6337 19.5767C13.6441 19.5663 13.9572 19.4984 14.3276 19.4254C14.6981 19.3524 15.0529 19.2793 15.1155 19.2689C15.2877 19.2271 15.392 19.0967 15.392 18.9089C15.392 18.7106 15.2564 18.5645 15.0738 18.5645C15.0059 18.5645 14.6564 18.6271 14.2963 18.6949C13.4563 18.8619 13.4824 18.8619 13.618 18.6428C13.7641 18.408 13.7224 18.2514 13.5137 18.2514C13.3832 18.2514 13.305 18.3297 12.945 18.7941Z" fill="#C42225"/>
<path d="M1.78443 19.4097C1.70095 19.4932 1.70617 19.6132 1.8053 19.7541C1.85226 19.8219 1.87835 19.8897 1.8627 19.9054C1.84704 19.921 1.5392 19.8845 1.1844 19.8219C0.824387 19.7593 0.453934 19.7123 0.354799 19.7123C0.135659 19.7123 0 19.8428 0 20.0567C0 20.3489 0.0678293 20.3854 0.960045 20.5315L1.78443 20.6724L1.62268 20.8028C1.44529 20.9489 1.41398 21.1211 1.54442 21.2307C1.61747 21.2881 1.65921 21.2828 1.82096 21.1941C2.35315 20.8915 2.92188 20.5211 2.92188 20.4793C2.92188 20.4532 2.79144 20.2602 2.62447 20.0567C2.06618 19.3523 1.94096 19.2532 1.78443 19.4097Z" fill="#C42225"/>
<path d="M12.8354 20.8967C12.5328 20.9645 12.2719 21.0376 12.251 21.0585C12.2145 21.095 12.5067 22.0707 12.5902 22.2011C12.6475 22.295 12.8823 22.2846 12.9189 22.1907C12.9345 22.149 12.9241 22.0446 12.898 21.9559C12.8667 21.8672 12.8615 21.7994 12.8876 21.7994C12.9136 21.7994 13.1902 21.9402 13.5032 22.1124C14.1346 22.4568 14.3015 22.4933 14.432 22.3003C14.5989 22.0446 14.5259 21.9611 13.832 21.5802C13.3415 21.3141 13.2058 21.2202 13.2841 21.1993C13.4667 21.1419 13.5398 21.0846 13.5554 20.9959C13.5763 20.9072 13.4772 20.7506 13.4145 20.7611C13.3989 20.7663 13.138 20.8237 12.8354 20.8967Z" fill="#C42225"/>
<path d="M1.81573 22.0916C1.75312 22.1542 1.76877 22.3473 1.8366 22.4151C1.87313 22.4516 1.96704 22.4777 2.04531 22.4777C2.12357 22.4777 2.1914 22.4986 2.1914 22.5247C2.1914 22.5507 1.96183 22.7438 1.68529 22.9525C0.975693 23.4795 0.886993 23.5682 0.886993 23.7299C0.886993 23.8656 1.04352 24.0586 1.20005 24.1056C1.30962 24.1421 1.41397 24.0795 2.06618 23.5943C2.37924 23.3543 2.65577 23.156 2.67143 23.156C2.68708 23.156 2.68708 23.2551 2.67664 23.3804C2.64534 23.6569 2.74969 23.7769 2.94274 23.6882C3.04709 23.6412 3.0784 23.5473 3.20362 22.916C3.28189 22.5247 3.32363 22.1803 3.30276 22.1594C3.24537 22.102 1.86269 22.0394 1.81573 22.0916Z" fill="#C42225"/>
<path d="M10.5657 22.6185C10.0544 23.0255 8.96911 23.5734 8.32734 23.756C7.37251 24.0273 6.48552 24.043 5.83853 23.8082C5.71331 23.7612 5.57243 23.709 5.52025 23.6934C5.44721 23.6725 5.46286 23.7612 5.61417 24.236C6.9238 28.3371 7.19511 29.7458 6.8351 30.4815C6.3916 31.3946 4.07497 32.9338 2.51489 33.3512C1.92008 33.513 1.75312 33.6017 1.64877 33.8208C1.45571 34.2278 1.62268 34.6556 2.05574 34.8696C2.26967 34.9791 2.38967 35 2.73404 35C2.96883 35 3.30798 34.9635 3.48537 34.9217C3.73582 34.8643 3.98105 34.8487 4.45064 34.8748C5.23328 34.9113 5.58286 34.8487 6.4803 34.4887C7.44034 34.1026 7.68035 34.0556 9.00042 34.0086C10.3831 33.9565 10.6127 33.8991 11.0405 33.5234C11.3223 33.2834 11.4788 32.9129 11.4788 32.5008C11.4788 32.2399 11.4214 31.9894 11.2231 31.379C10.7953 30.0798 10.7744 29.9076 10.7796 27.9823C10.7796 26.8501 10.8162 25.723 10.8996 24.4812C10.9622 23.4742 11.0092 22.5664 10.9988 22.4672L10.9831 22.2898L10.5657 22.6185ZM10.2526 28.2536C10.2526 29.7928 10.3048 30.1424 10.7327 31.4781C11.0457 32.4538 11.0614 32.6521 10.8579 32.986C10.6127 33.3773 9.96568 33.5338 8.57257 33.5391C7.78993 33.5391 7.32556 33.6278 6.59509 33.9043C5.38981 34.3687 5.3272 34.3843 4.48716 34.3687C3.95496 34.3582 3.59495 34.3843 3.26623 34.4417C2.69751 34.5513 2.55142 34.5513 2.32184 34.4521C2.12879 34.3739 2.01922 34.1913 2.08705 34.066C2.10792 34.0243 2.34793 33.9356 2.61925 33.8678C3.80887 33.5704 5.90636 32.3077 6.81944 31.332C7.58644 30.5128 7.6647 29.8032 7.21077 27.9405C7.09598 27.4918 7.0125 27.1214 7.02293 27.1214C7.02815 27.1214 7.18468 27.1631 7.3673 27.2101C7.88384 27.3509 9.0265 27.3301 9.60044 27.1735C9.84567 27.1109 10.0805 27.0327 10.1222 27.0118C10.1639 26.9857 10.2109 26.9648 10.2266 26.9648C10.2422 26.9648 10.2526 27.544 10.2526 28.2536Z" fill="#C42225"/>
<path d="M9.41783 29.1197C9.30826 29.2032 9.32391 29.344 9.50131 30.0797C9.61088 30.5545 9.60044 30.6954 9.40739 30.9876C9.28217 31.1806 9.28739 31.3163 9.42304 31.3685C9.67871 31.4676 9.99177 30.9928 9.98655 30.5128C9.98133 30.2049 9.77263 29.224 9.68914 29.1145C9.62653 29.031 9.53783 29.0362 9.41783 29.1197Z" fill="#C42225"/>
</svg>
