<svg width="43" height="35" viewBox="-5 0 43 35" fill="none" xmlns="http://www.w3.org/2000/svg">
<path d="M15.666 0.166951C14.7904 0.396798 14.0899 0.823656 13.4223 1.52414C12.7546 2.22463 12.4372 2.77188 12.2074 3.68032C11.6273 5.92406 12.7328 8.24442 14.8889 9.2842C15.666 9.65633 15.7645 9.67822 16.8591 9.67822C17.7237 9.67822 18.1506 9.6235 18.5665 9.47027C19.9784 8.9449 21.1605 7.71905 21.5764 6.32903C21.9376 5.14696 21.85 3.91017 21.3246 2.8266C20.3068 0.670425 17.9317 -0.445972 15.666 0.166951Z" fill="#C42225"/>
<path d="M8.70497 8.38674C6.7458 9.08722 5.73885 10.3787 4.61151 13.6185C3.64834 16.3438 3.28715 18.5766 3.28715 21.6741C3.28715 24.5964 3.54983 25.4829 4.74285 26.5884C5.15876 26.9824 5.97964 27.7595 6.55973 28.3287C7.58857 29.3247 7.59951 29.3466 7.33683 29.456C7.1836 29.5107 5.97964 29.5436 4.54584 29.5217C2.10508 29.4998 2.01752 29.4998 1.51405 29.7515C0.288202 30.3426 -0.280942 31.6998 0.134971 33.0569C0.299147 33.6042 0.890181 34.3047 1.43743 34.5893C2.41155 35.0818 6.83336 35.1474 8.97859 34.6987C11.693 34.1186 13.1924 32.641 13.3238 30.3863C13.4113 28.9635 12.9407 27.5516 11.9228 26.1834L11.485 25.6033L12.0979 25.3078C12.4263 25.1437 12.6999 24.9795 12.6999 24.9357C12.6999 24.9029 12.3497 24.6402 11.9338 24.3556C9.72286 22.889 8.10299 20.7328 7.38061 18.303C6.72391 16.0921 7.00848 12.2175 7.92787 10.8275C8.45323 10.0285 9.64624 9.73298 10.5656 10.1598C11.091 10.4006 11.4303 10.7509 11.6601 11.2872C11.879 11.8344 11.8681 12.2066 11.5945 13.2682C11.2552 14.5379 11.2552 16.2015 11.5726 17.2304C11.89 18.2264 12.5357 19.1895 13.4332 20.0104C14.5168 21.0174 15.5894 21.5974 17.7565 22.3636C18.3695 22.5825 18.9824 23.2283 19.1685 23.8302C19.453 24.7934 18.9605 25.9098 18.0411 26.3586C17.4391 26.6431 16.9685 26.6541 16.0382 26.3586C15.6332 26.2382 15.2939 26.1506 15.272 26.1725C15.2501 26.1944 15.1516 26.676 15.0531 27.2451C14.9546 27.8142 14.6919 29.0182 14.473 29.9266C13.9586 32.0281 13.9367 32.8818 14.3745 33.6151C15.4471 35.4539 17.9098 35.443 19.0809 33.5932C19.2998 33.254 19.9346 30.6819 20.3067 28.6351C20.9853 24.8919 20.9635 22.5168 20.2411 21.1049C19.9565 20.5467 19.2341 19.7368 18.6978 19.4084C17.4172 18.5985 15.1735 18.4672 13.1268 19.102C12.9079 19.1676 12.4044 18.106 12.2402 17.1975C12.1308 16.6065 12.1527 16.4642 12.6452 14.6583C13.0721 13.126 13.1706 12.5678 13.1815 11.8673C13.1815 10.2912 12.6233 9.09817 11.6054 8.52902C10.9487 8.16784 9.5149 8.10217 8.70497 8.38674Z" fill="#C42225"/>
<path d="M8.86914 10.5867C8.66119 10.6852 8.38756 10.926 8.25622 11.123C7.57762 12.1409 7.22738 15.5338 7.61046 17.4054C8.21244 20.4153 10.0074 22.7576 13.0611 24.5526C14.8452 25.6033 16.6839 26.2491 17.461 26.1068C18.0192 25.9973 18.6759 25.3516 18.7744 24.8043C18.9824 23.7098 18.5336 23.1188 17.078 22.5825C13.674 21.3347 11.6601 19.4522 11.0472 16.9567C10.8393 16.1358 10.8721 14.4503 11.1129 13.4543C11.4303 12.108 11.4412 11.7687 11.1676 11.2871C10.7079 10.4772 9.69002 10.1708 8.86914 10.5867Z" fill="#C42225"/>
<path d="M26.9504 20.3826L25.1664 21.1597L25.7355 21.7288L26.2937 22.287L25.3743 22.6154C24.8818 22.8014 24.05 23.086 23.5355 23.2611C23.0211 23.4253 22.6928 23.5895 22.7913 23.6114C22.9773 23.6442 27.038 22.8014 27.1365 22.7029C27.1802 22.6482 26.9942 22.4074 26.4469 21.7945C26.2499 21.5865 26.1624 21.4114 26.228 21.3457C26.2828 21.302 27.0051 21.0174 27.837 20.7328C28.6578 20.4482 29.3364 20.1965 29.3364 20.1746C29.3364 19.9885 29.0409 19.5836 28.9096 19.5945C28.8111 19.6055 27.9355 19.9557 26.9504 20.3826Z" fill="#C42225"/>
<path d="M27.4758 24.268C27.4758 24.3337 27.5962 24.7277 27.7494 25.1327C27.8917 25.5377 27.9902 25.8879 27.9683 25.9098C27.9464 25.9317 26.9285 25.8332 25.7027 25.68C24.4768 25.5267 23.4589 25.4282 23.437 25.4501C23.4152 25.472 23.4261 25.5267 23.4589 25.5596C23.6012 25.7019 28.7892 26.8839 28.7892 26.7745C28.7892 26.7197 28.6797 26.2819 28.5484 25.8113C28.428 25.3297 28.3404 24.9248 28.3733 24.8919C28.4171 24.8372 30.7046 25.0561 31.9414 25.2203L32.4011 25.2859V24.7934V24.2899H31.7663C31.4051 24.2899 30.2996 24.2571 29.3036 24.2133C27.9902 24.1695 27.4758 24.1805 27.4758 24.268Z" fill="#C42225"/>
<path d="M22.7913 27.1356C22.8132 27.1904 23.5574 27.9346 24.4659 28.7774C25.5166 29.7625 26.1295 30.255 26.1733 30.1674C26.2171 30.1018 26.3046 29.7625 26.3922 29.4341C26.4688 29.1058 26.5673 28.7884 26.6111 28.7446C26.6658 28.668 28.2419 29.7296 29.3036 30.5505C29.3802 30.6162 29.5006 30.5396 29.6538 30.3207L29.8837 30.0033L28.1215 28.8978C27.1583 28.2849 26.3156 27.8142 26.2609 27.8471C26.2061 27.8909 26.1623 27.9784 26.1623 28.066C26.1623 28.1535 26.1076 28.4709 26.042 28.7665L25.9216 29.3137L24.4111 28.1754C22.9117 27.0481 22.7146 26.9167 22.7913 27.1356Z" fill="#C42225"/>
</svg>
