<svg width="43" height="35" viewBox="-11 0 43 35" fill="none" xmlns="http://www.w3.org/2000/svg">
<path d="M9.33399 0.074121C8.26733 0.303784 7.42013 1.12037 7.08839 2.21765C6.9557 2.66166 6.96591 3.43741 7.10881 3.90184C7.5171 5.22879 8.79811 6.13724 10.1557 6.05558C10.7222 6.02496 11.1866 5.88205 11.6051 5.61156C12.4778 5.04506 12.9729 4.19275 13.0239 3.16182C13.0698 2.24827 12.8045 1.54907 12.1716 0.911117C11.4214 0.155779 10.3802 -0.155542 9.33399 0.074121Z" fill="#C42225"/>
<path d="M6.60864 7.04563C5.68488 7.19874 4.88871 8.01022 4.72029 8.97991C4.67946 9.21468 4.66926 10.8325 4.67946 14.4153L4.69477 19.5189L4.82747 19.7996C5.04692 20.264 5.39907 20.5345 5.86861 20.6009L6.09827 20.6315V23.3058V25.975L6.24117 25.9393C6.31773 25.9138 6.50146 25.8984 6.64946 25.9036C7.30783 25.9138 7.75695 26.6283 7.52219 27.2968C7.49156 27.3887 7.15983 27.797 6.78216 28.2104L6.10338 28.9606L6.09827 29.6088C6.09827 29.9711 6.11358 30.2621 6.1391 30.2621C6.15952 30.2621 6.26159 30.2416 6.37387 30.2161C6.79237 30.114 7.33335 30.3998 7.50688 30.8081C7.60384 31.0378 7.59364 31.4206 7.48136 31.6655C7.43032 31.7778 7.09348 32.1861 6.73623 32.574L6.08296 33.2783L6.11869 33.5131C6.19524 34.0643 6.58312 34.5797 7.119 34.8451C7.36397 34.9676 7.46094 34.9829 7.88454 34.9829C8.27242 34.9829 8.41532 34.9625 8.60926 34.8706C8.97162 34.7073 9.32887 34.345 9.49729 33.9724L9.6453 33.656L9.66061 27.4397L9.67081 21.2286H10.0281H10.3853L10.3955 27.4653L10.4108 33.707L10.5435 33.9928C10.7171 34.3603 11.0335 34.6767 11.4009 34.8502C11.6408 34.9625 11.7582 34.9829 12.1461 34.9829C12.5442 34.9829 12.6462 34.9625 12.9116 34.84C13.4424 34.5899 13.815 34.0898 13.9272 33.4773C13.9579 33.3038 13.9323 33.2732 13.2893 32.5842C12.9167 32.1912 12.5748 31.7778 12.5237 31.6655C12.1716 30.9102 12.8657 30.0273 13.6619 30.211C13.7843 30.2365 13.8966 30.2621 13.9221 30.2621C13.9885 30.2621 13.963 29.0015 13.8966 28.9249C13.2229 28.2155 12.6258 27.5367 12.5595 27.4142C12.2992 26.909 12.4982 26.2506 12.9984 25.9954C13.1719 25.9087 13.5496 25.878 13.7792 25.9393L13.9323 25.9801L13.9221 23.3007L13.9068 20.6264L14.1569 20.5907C14.6724 20.5192 15.1419 20.1058 15.2848 19.5955C15.3154 19.4832 15.3358 17.4672 15.3358 14.2366C15.3358 8.57672 15.3461 8.76045 15.0398 8.19395C14.7387 7.62745 14.0906 7.16812 13.4271 7.04563C13.0545 6.97928 7.02713 6.97928 6.60864 7.04563Z" fill="#C42225"/>
<path d="M2.37773 22.6882L2.21952 22.8209V25.3115C2.21952 27.0569 2.20421 27.8174 2.16338 27.8429C2.13276 27.8582 1.81123 27.5826 1.43356 27.2049C0.770089 26.5466 0.749674 26.5364 0.530218 26.5364C0.402627 26.5364 0.254622 26.5721 0.193378 26.6129C0.045373 26.7201 -0.0413888 26.9957 0.0198548 27.1641C0.0759948 27.3121 3.14328 30.5887 3.27087 30.6397C3.3168 30.655 3.43418 30.6703 3.53626 30.6703C3.75061 30.6703 3.69957 30.7213 5.74613 28.5319C6.96079 27.2305 7.03224 27.1284 6.91996 26.8324C6.85362 26.6538 6.63927 26.516 6.41981 26.516C6.2667 26.516 6.17483 26.5925 5.57261 27.1845C5.20004 27.552 4.8683 27.8429 4.83768 27.8276C4.78665 27.8072 4.77134 27.2662 4.77134 25.3574C4.77134 23.7753 4.75092 22.872 4.7203 22.8056C4.60292 22.5913 4.41919 22.5555 3.4495 22.5555C2.53594 22.5555 2.53084 22.5555 2.37773 22.6882Z" fill="#C42225"/>
<path d="M15.5094 22.6066C15.2287 22.7188 15.2338 22.6831 15.2338 25.3472C15.2338 27.6591 15.2287 27.8123 15.147 27.8123C15.096 27.8123 14.8051 27.5469 14.4989 27.2202C13.8864 26.5721 13.6925 26.4445 13.4322 26.5363C13.3454 26.5619 13.2332 26.6282 13.1821 26.669C13.0596 26.7864 13.0137 27.0569 13.1005 27.2151C13.1617 27.3274 15.2899 29.6496 15.9993 30.3743C16.2596 30.6397 16.3107 30.6703 16.4944 30.6703C16.622 30.6703 16.7496 30.6295 16.8312 30.5682C17.0813 30.3692 19.8526 27.3938 19.9444 27.2202C20.0261 27.0773 20.0312 27.0212 19.9802 26.8681C19.9036 26.6333 19.7556 26.5363 19.4749 26.5363C19.2452 26.5363 19.235 26.5415 18.5869 27.21C17.9693 27.8429 17.9234 27.8786 17.8571 27.7867C17.7958 27.7102 17.7856 27.2611 17.7856 25.2809V22.8668L17.6631 22.7239L17.5406 22.581L16.576 22.5708C16.0504 22.5657 15.5655 22.581 15.5094 22.6066Z" fill="#C42225"/>
<path d="M2.21952 31.2725C2.21952 31.9921 2.20932 32.1044 2.13787 32.135C2.07662 32.1606 1.87758 31.9819 1.40805 31.492C0.800715 30.8591 0.754783 30.8234 0.571052 30.8234C0.20359 30.8234 0.030067 30.9867 0.0249634 31.3236C0.0249634 31.5226 0.0555852 31.5736 0.295456 31.8339C0.448565 31.9921 1.13756 32.7322 1.83165 33.4773C2.53085 34.2224 3.1739 34.8706 3.27087 34.9216C3.58219 35.09 3.66385 35.0339 4.62844 34.0234C6.16463 32.4106 6.84341 31.6706 6.90976 31.543C7.06797 31.247 6.78217 30.8234 6.41981 30.8234C6.25139 30.8234 6.17484 30.8846 5.5573 31.492C5.17963 31.8696 4.8581 32.1452 4.82748 32.1299C4.79176 32.1044 4.77134 31.8084 4.77134 31.2674V30.4406L4.30181 30.9102C3.78634 31.4103 3.67916 31.4869 3.45971 31.4869C3.26577 31.4869 3.11776 31.3797 2.63802 30.8744L2.22463 30.4406L2.21952 31.2725Z" fill="#C42225"/>
<path d="M15.2338 31.2675C15.2338 31.8391 15.2134 32.1045 15.1725 32.13C15.1368 32.1504 14.8969 31.9412 14.5499 31.5839C14.2386 31.2624 13.9272 30.9613 13.8558 30.9153C13.4628 30.6397 12.9116 31.0531 13.0851 31.4971C13.1107 31.5737 13.8354 32.3801 14.6928 33.2885C16.3055 35.0084 16.3872 35.0748 16.6679 34.9676C16.8771 34.8859 19.8475 31.7676 19.9546 31.5124C20.1026 31.1705 19.8475 30.8235 19.4596 30.8235C19.2554 30.8235 19.2248 30.849 18.6022 31.4971C17.7754 32.3596 17.7856 32.3648 17.7856 31.2369L17.7805 30.4407L17.3926 30.849C16.8976 31.3593 16.7342 31.4869 16.5454 31.4869C16.326 31.4869 16.2188 31.4155 15.7084 30.9102L15.2338 30.4407V31.2675Z" fill="#C42225"/>
</svg>
