<svg width="43" height="35" viewBox="-4.5 0 43 35" fill="none" xmlns="http://www.w3.org/2000/svg">
<path d="M21.1692 0.171497C20.8982 0.259979 20.6825 0.353989 20.6825 0.37611C20.6825 0.398232 21.1471 1.79181 21.7111 3.47849C22.6125 6.16058 22.7397 6.59193 22.7453 6.90714C22.7453 7.10623 22.7121 7.36614 22.6678 7.4878C22.6181 7.60947 19.7645 11.934 16.3248 17.0991C10.6399 25.621 10.0648 26.5058 10.0648 26.7049C10.0648 26.8874 11.0325 31.3889 11.2316 32.1465C11.2648 32.2626 11.3477 32.4174 11.4196 32.4893C11.5524 32.6165 11.5745 32.6221 12.5367 32.6221C13.6206 32.6221 13.875 32.6663 14.0464 32.882C14.2234 33.1087 14.1957 33.3686 13.969 33.5954L13.7755 33.7889L10.9385 33.7723L8.10158 33.7557L7.80849 33.5954C7.26101 33.2912 7.17806 33.153 5.65728 30.1059L4.23052 27.2523L4.21393 26.6606C4.20287 26.1297 4.21393 26.0413 4.33006 25.8201C4.51808 25.4551 4.78906 25.2947 5.55774 25.1011C6.06651 24.9684 6.25453 24.891 6.36513 24.7804C6.45914 24.6809 6.77989 23.9509 7.31078 22.6126C10.6233 14.3119 10.8666 13.7313 11.6851 12.3266C12.1385 11.5469 12.4759 11.0437 13.8252 9.11918C15.4843 6.7523 15.3736 6.92373 15.3736 6.68041C15.3736 6.53663 15.0142 5.57439 14.2068 3.55038C13.5653 1.94666 13.0178 0.608372 12.9902 0.580723C12.9625 0.547543 12.7303 0.608376 12.404 0.741096C12.1054 0.857227 11.8565 0.956768 11.851 0.962299C11.8399 0.967831 12.3321 2.2121 12.9404 3.72734C13.5487 5.24812 14.0464 6.52557 14.0464 6.56428C14.0464 6.60852 13.5266 7.3772 12.8962 8.27861C10.1256 12.2271 10.109 12.2492 7.41585 18.9904L5.47479 23.8569L5.03791 23.9564C4.15863 24.1555 3.53926 24.609 3.19086 25.3168C3.01943 25.6597 3.0139 25.715 2.99731 26.4284C2.98072 26.9924 2.99731 27.2634 3.0692 27.5288C3.15215 27.8551 5.78447 33.2193 6.03333 33.5732C6.09416 33.6507 6.1384 33.7336 6.1384 33.7502C6.1384 33.7668 4.75588 33.7834 3.0692 33.7834H0V34.3917V35H16.535H33.0699V34.3917V33.7834H30.3989H27.7223L27.75 33.3465C27.7776 32.8322 27.6892 32.5004 27.4016 32.1133C27.0034 31.5713 26.4947 31.4054 25.2006 31.4054H24.3269L22.2697 30.3713C21.136 29.7962 20.2069 29.3261 20.1959 29.3261C20.1848 29.3206 20.8263 24.8025 21.6116 19.289L23.0439 9.25743L23.3536 8.79291C23.8568 8.04634 24.0338 7.44909 23.984 6.70253C23.9563 6.29884 23.8236 5.85643 22.9112 3.11903C21.9932 0.353989 21.8604 -0.00547028 21.7609 6.10352e-05C21.7001 6.10352e-05 21.4346 0.0774841 21.1692 0.171497ZM20.1793 20.5665C19.4825 25.4164 18.9184 29.5031 18.9129 29.6413C18.9129 29.8183 18.9461 29.94 19.029 30.045C19.1065 30.1446 19.936 30.587 21.5729 31.411L24.0006 32.6221H24.9518C25.4771 32.6221 26.0025 32.6497 26.1131 32.6774C26.561 32.8046 26.6827 33.2691 26.3564 33.5954L26.1684 33.7834H20.7544H15.3349L15.3626 33.3465C15.429 32.1686 14.6381 31.411 13.3386 31.4054H12.9957L13.8805 30.0838C14.3616 29.3538 14.7764 28.7012 14.793 28.6293C14.804 28.5574 14.981 26.7049 15.1801 24.5039L15.5396 20.5001L18.4816 16.1092C20.0963 13.6981 21.4236 11.7239 21.4346 11.7349C21.4402 11.7404 20.8761 15.7166 20.1793 20.5665ZM13.8473 25.5104L13.593 28.2699L12.8685 29.3648C12.4704 29.9676 12.133 30.4543 12.1275 30.4432C12.0998 30.4211 11.3367 26.9703 11.3367 26.8874C11.3367 26.8155 14.052 22.7066 14.0796 22.7398C14.0851 22.7453 13.9801 23.9951 13.8473 25.5104Z" fill="#C42225"/>
<path d="M20.1793 20.5665C19.4825 25.4164 18.9184 29.5031 18.9129 29.6413C18.9129 29.8183 18.9461 29.94 19.029 30.045C19.1065 30.1446 19.936 30.587 21.5729 31.411L24.0006 32.6221H24.9518C25.4771 32.6221 26.0025 32.6497 26.1131 32.6774C26.561 32.8046 26.6827 33.2691 26.3564 33.5954L26.1684 33.7834H20.7544H15.3349L15.3626 33.3465C15.429 32.1686 14.6381 31.411 13.3386 31.4054H12.9957L13.8805 30.0838C14.3616 29.3538 14.7764 28.7012 14.793 28.6293C14.804 28.5574 14.981 26.7049 15.1801 24.5039L15.5396 20.5001L18.4816 16.1092C20.0963 13.6981 21.4236 11.7239 21.4346 11.7349C21.4402 11.7404 20.8761 15.7166 20.1793 20.5665Z" fill="#C42225"/>
<path d="M9.99841 8.18462L9.98182 8.90906L9.23525 9.09155C8.58823 9.25193 8.4721 9.29617 8.33938 9.44548C8.18454 9.61691 8.18454 9.62244 8.18454 10.4409C8.18454 11.1819 8.17348 11.2704 8.09053 11.2925C8.03522 11.3091 7.70342 11.3921 7.35502 11.475C6.80754 11.6022 6.69141 11.652 6.53104 11.8124L6.34302 12.0004L6.38173 12.8465L6.42044 13.6926L5.76236 14.1792C5.12087 14.6438 4.97708 14.8041 4.97708 15.0475C4.97708 15.1138 5.11534 15.4733 5.28124 15.8493C5.44714 16.2254 5.58539 16.5572 5.58539 16.5793C5.58539 16.6014 5.36419 16.7894 5.09875 16.9885C4.08121 17.7517 4.08674 17.7185 4.71717 19.0678L4.91072 19.4826L4.3743 19.8863C4.08121 20.113 3.83789 20.3176 3.82683 20.3453C3.80471 20.4061 4.47938 21.2854 4.54574 21.2854C4.57339 21.2854 4.95496 21.0089 5.39184 20.6716C6.21582 20.0301 6.34302 19.8752 6.28772 19.5711C6.2656 19.4826 6.12734 19.1342 5.9725 18.8024C5.82319 18.4651 5.696 18.172 5.696 18.1443C5.696 18.1167 5.9172 17.9286 6.18264 17.7296C7.18912 16.9719 7.18912 16.9775 6.58634 15.7C6.49233 15.5009 6.41491 15.3129 6.41491 15.2797C6.41491 15.2465 6.64717 15.0585 6.92921 14.8539C7.70342 14.3064 7.66471 14.3894 7.64259 13.4603L7.626 12.6751L8.3615 12.4926C9.08041 12.3156 9.24631 12.2382 9.35692 12.0336C9.38457 11.9783 9.40669 11.5746 9.40669 11.1377L9.39563 10.3414L9.60577 10.2861C9.7219 10.2584 10.0648 10.1699 10.3689 10.0925C10.8224 9.9819 10.9496 9.92107 11.0768 9.78281L11.2261 9.61691V8.53854V7.46018H10.6178H10.015L9.99841 8.18462Z" fill="#C42225"/>
<path d="M23.8457 11.5911C23.6688 12.6308 22.3747 21.8937 22.4079 21.9213C22.4411 21.96 23.5637 22.1315 23.5858 22.1038C23.6135 22.0706 25.1121 11.486 25.0955 11.4639C25.0789 11.4473 24.0061 11.2759 23.9232 11.2759C23.9121 11.2759 23.8789 11.4197 23.8457 11.5911Z" fill="#C42225"/>
<path d="M22.1259 23.5914C22.0872 23.89 22.0485 24.1721 22.0319 24.2218C22.0098 24.2937 22.0927 24.3214 22.5185 24.3767C22.8006 24.4154 23.0826 24.4596 23.149 24.4762C23.2651 24.4984 23.2927 24.3877 23.4089 23.3039C23.4144 23.2707 23.2209 23.2209 22.9775 23.1822C22.7342 23.1435 22.4577 23.0992 22.3637 23.0826L22.1923 23.055L22.1259 23.5914Z" fill="#C42225"/>
</svg>
