<svg width="43" height="36" viewBox="-6 0 43 36" fill="none" xmlns="http://www.w3.org/2000/svg">
<path d="M12.0629 0.417258C12.0248 0.480772 12.1518 1.61133 12.355 2.91973C12.8632 6.22248 13.3205 10.1858 13.2188 10.2874C13.1553 10.3509 7.10875 8.30575 6.75307 8.1025C6.71496 8.0771 6.57523 8.14061 6.4609 8.25494C6.28306 8.43278 6.28306 8.49629 6.42279 8.62332C6.61333 8.81386 14.8702 11.7355 15.1878 11.7355C15.4672 11.7355 15.5181 11.5196 15.3783 10.8717C15.3148 10.5669 15.2894 10.3001 15.3148 10.262C15.3529 10.2366 16.1532 10.5033 17.1059 10.8463C18.0713 11.202 18.9351 11.4815 19.0241 11.4815C19.3162 11.4815 19.3416 11.202 19.0749 10.6812C18.9478 10.4271 18.8716 10.2112 18.897 10.2112C18.9351 10.2112 20.8533 10.8717 23.1779 11.672C26.9634 12.9804 27.4334 13.1201 27.5985 12.9423C27.9034 12.6374 27.6239 12.485 25.2993 11.672C24.1179 11.2782 23.1652 10.8971 23.1652 10.8336C23.1652 10.7701 23.3303 9.74117 23.5336 8.5344C24.0036 5.77787 24.2068 3.55487 24.156 1.76376C24.1179 0.429961 24.1052 0.366446 23.8384 0.328338C23.5082 0.277526 23.5082 0.277526 23.5463 1.50971C23.5717 2.91973 23.3176 5.63814 22.8857 8.17872C22.6825 9.47441 22.4792 10.5669 22.4538 10.605C22.4284 10.6431 21.933 10.5161 21.3487 10.3128L20.2689 9.93172L20.1292 9.28387C20.053 8.91549 19.9641 8.48359 19.9133 8.31845C19.837 8.06439 19.8624 8.03899 20.0911 8.1025C20.3833 8.20413 21.4122 7.81034 21.5773 7.54358C21.7679 7.226 21.4249 7.14979 20.993 7.40384C20.5484 7.6706 20.1673 7.73412 19.7989 7.58168C19.4559 7.45466 18.1094 5.30787 17.8935 4.5584C17.6394 3.6946 17.8046 2.48783 18.3508 1.33187C18.7319 0.493475 18.7446 0.341041 18.4143 0.468069C17.8681 0.684018 17.3092 2.58945 17.3346 4.1138C17.36 4.90138 17.2965 5.34598 17.1313 5.73977C16.8646 6.38761 16.0389 7.12438 15.4545 7.23871C15.1497 7.30222 15.0353 7.37844 15.0608 7.53087C15.1116 7.74682 15.2894 7.77223 15.7721 7.61979C16.0135 7.54358 16.0516 7.56898 16.0516 7.89926C16.0516 8.29305 16.3819 8.68684 16.7248 8.68684C16.9916 8.68684 17.0043 8.35656 16.7502 8.25494C16.3946 8.12791 16.5089 7.31492 16.9535 6.80681C17.1694 6.55275 17.4362 6.15896 17.5378 5.91761L17.7157 5.48571L18.427 6.60356C19.24 7.88655 19.5449 8.5344 19.6846 9.24576C19.7481 9.63955 19.7354 9.72847 19.5957 9.67766C18.7319 9.36009 18.0459 9.18225 17.8935 9.24576C17.6521 9.33468 17.6521 9.71577 17.8935 10.0333C17.9951 10.1604 18.084 10.3128 18.084 10.3636C18.084 10.4144 17.3219 10.1858 16.3819 9.8555C14.4002 9.16954 14.2986 9.18225 14.5018 10.1604C14.578 10.5033 14.6289 10.7955 14.6034 10.8082C14.5907 10.8209 14.4637 10.8082 14.324 10.7701C14.0953 10.7066 14.0445 10.5033 13.8413 8.77576C13.5999 6.61627 12.7869 0.874561 12.6726 0.518881C12.5964 0.290229 12.1772 0.214012 12.0629 0.417258Z" fill="#C42225" stroke="#C42225" stroke-width="0.6"/>
<path d="M9.53498 10.4272C9.48417 10.4653 9.44606 10.605 9.44606 10.7194C9.44606 10.8845 9.91607 11.1004 11.3515 11.6086C12.3931 11.9769 13.3077 12.3199 13.384 12.3707C13.5618 12.4851 13.765 15.1273 13.765 17.5789C13.765 20.9071 13.3586 23.0157 12.3296 25.0101C11.9104 25.8104 11.5293 26.3058 10.4623 27.3728C8.44254 29.4053 5.78763 31.6791 5.03816 32.0221C4.17437 32.4159 3.19625 32.5175 2.02758 32.3143C1.27811 32.1872 1.03676 32.1872 0.7954 32.3143C0.388908 32.5302 0.299988 32.6826 0.299988 33.1908C0.299988 33.7751 1.12568 34.5881 2.14191 34.9946C2.84056 35.274 3.09462 35.2994 5.06357 35.2994C6.99441 35.2994 7.3882 35.2613 8.74741 34.9438C11.1737 34.3721 12.0883 34.2197 13.4475 34.1308C14.5907 34.0673 14.9464 34.1054 17.0043 34.5373C20.1419 35.1851 21.0057 35.0581 22.0727 33.8132C23.1017 32.6191 23.1652 30.7899 22.3014 27.2966C21.4884 24.0574 21.3741 23.2825 21.3741 21.3263C21.3741 19.0397 21.8187 16.0292 22.5173 13.4251L22.6571 12.8916L23.5209 13.1964C29.199 15.1781 30.3296 15.5465 30.4439 15.4321C30.825 15.051 30.4566 14.8859 25.7058 13.2345C23.089 12.3199 20.7516 11.545 20.5103 11.5069C20.1038 11.4561 20.0911 11.4688 20.1546 11.8118C20.1927 12.0151 20.2562 12.3072 20.307 12.4597L20.3959 12.7518L19.5957 12.447C19.1511 12.2818 18.4016 12.0023 17.9443 11.8245C16.801 11.3926 16.674 11.4942 17.0043 12.5867C17.0551 12.7518 17.0424 12.8788 16.9789 12.8788C16.9154 12.8788 15.2767 12.3072 13.3331 11.6086C11.4023 10.9099 9.77634 10.3383 9.72553 10.3383C9.66201 10.3383 9.57309 10.3764 9.53498 10.4272ZM21.8568 13.0567C21.806 13.2726 21.6281 14.1237 21.4503 14.9494C20.8405 17.7568 20.7008 19.0397 20.7008 21.3898C20.7008 23.7652 20.6627 23.4858 21.7043 27.8047C22.06 29.2529 22.1744 30.015 22.1871 30.9805C22.2125 32.1745 22.1871 32.2889 21.8441 32.924C21.0692 34.3213 20.1292 34.4992 17.0424 33.8259C14.324 33.2289 12.9267 33.2797 9.31903 34.0927C6.9563 34.6262 5.74952 34.7786 4.44113 34.6897C2.92948 34.5881 2.05299 34.3086 1.43054 33.7497C0.579451 32.9875 0.871618 32.7716 2.34515 33.0891C3.20895 33.2797 4.51734 33.0637 5.44466 32.5937C5.81304 32.4032 6.9436 31.5394 7.94712 30.6629C11.7834 27.3093 12.8758 25.9882 13.6253 23.7398C14.4002 21.4279 14.6288 18.8619 14.4129 15.1781C14.324 13.8951 14.2986 12.8153 14.324 12.7772C14.3621 12.7518 15.137 12.9932 16.0516 13.3235C16.9662 13.6537 17.7919 13.8824 17.8935 13.8443C18.1348 13.7553 18.1348 13.5013 17.8935 12.9297C17.7156 12.4851 17.7156 12.4851 17.9951 12.574C18.1475 12.6248 18.5032 12.7518 18.77 12.8788L19.2781 13.0948L18.427 13.984C17.9697 14.4794 17.3854 15.2035 17.144 15.5719C16.9154 15.9529 16.6105 16.334 16.4835 16.4357C16.3691 16.5373 16.0643 16.9311 15.8229 17.3122C15.5943 17.6805 15.2259 18.0743 15.0226 18.2014C14.5272 18.4808 14.5272 18.773 15.0353 18.6714C15.3783 18.6078 15.4164 18.6333 15.4164 18.9508C15.4164 19.5098 15.5562 19.8654 15.7848 19.8654C15.9626 19.8654 15.988 19.7384 15.9499 18.9381C15.9118 18.1378 15.9499 17.96 16.2294 17.5154L16.547 17.0073L16.5597 17.5154C16.5597 17.7949 16.6486 18.3665 16.7375 18.7857C17.1948 20.7038 17.1059 22.0503 16.4835 22.7236C16.1532 23.092 16.0897 23.2952 16.3437 23.2952C16.547 23.2952 16.7121 23.1682 17.017 22.7617L17.2837 22.4187L17.4489 22.7236C17.5378 22.9014 17.7283 23.0412 17.8554 23.0412C18.1475 23.0412 18.1348 22.9522 17.7665 22.3425C17.4997 21.9106 17.4489 21.6692 17.4489 20.8436C17.4489 20.2973 17.36 19.4462 17.2456 18.9508C16.89 17.3757 17.144 16.1181 18.0713 15.0383L18.4524 14.5937L18.4651 15.3432C18.4651 15.7497 18.5286 16.3086 18.6175 16.5881C18.7319 16.9692 18.7319 17.274 18.6048 17.9219C18.5032 18.4935 18.4905 18.7984 18.5794 18.8873C18.7573 19.0652 19.1003 18.2395 19.1003 17.6297C19.1003 17.2486 19.1384 17.1851 19.3289 17.2613C19.7989 17.4519 20.3705 17.4773 20.5611 17.3249C20.8405 17.0962 20.6754 16.9438 20.1038 16.9438C19.1638 16.9438 18.7192 16.1435 18.9097 14.7462C18.9605 14.2889 19.1003 13.9586 19.3543 13.6537L19.71 13.2345L20.4341 13.5013C20.8278 13.6537 21.2089 13.7299 21.2852 13.6918C21.4122 13.6156 21.3741 13.2345 21.1962 12.6629C21.1073 12.3834 21.12 12.3834 21.5138 12.5105C21.8822 12.6502 21.9203 12.701 21.8568 13.0567Z" fill="#C42225" stroke="#C42225" stroke-width="0.6"/>
<path d="M18.9732 22.5965C18.7954 22.8125 18.897 24.032 19.1765 24.9466C19.5703 26.2296 19.2908 27.4363 18.5032 27.8936C18.0586 28.1604 17.9443 28.5796 18.2746 28.7066C18.5667 28.821 19.3924 28.1858 19.7227 27.6142C20.1419 26.8647 20.18 26.0771 19.8751 24.8068C19.7227 24.1971 19.6084 23.4857 19.6084 23.2063C19.6084 22.5203 19.2908 22.2155 18.9732 22.5965Z" fill="#C42225" stroke="#C42225" stroke-width="0.6"/>
</svg>
