<svg width="43" height="35" viewBox="-6.5 0 43 35" fill="none" xmlns="http://www.w3.org/2000/svg">
<path d="M3.63628 0.484123C3.5455 0.726185 3.57576 1.05902 3.72705 1.21031C3.87834 1.3616 6.11741 2.20882 8.68933 3.11655C11.2612 4.02428 14.4988 5.2346 15.8907 5.83975C13.9844 10.8625 17.4641 9.56398 19.2796 11.7098L19.1888 20.4845L19.1283 29.2895L19.8847 30.1368C20.6714 30.984 24.6049 32.981 25.4824 32.981C25.7547 32.981 25.8758 33.102 25.785 33.2836C25.5127 33.7072 24.3931 33.6467 21.5489 33.0718C19.219 32.5876 18.977 32.5876 17.4641 33.0718C16.0117 33.5559 15.7999 33.5559 15.1342 33.1323C14.287 32.5574 14.287 32.4969 15.0435 30.7117C15.8907 28.7449 15.7999 26.9294 14.7106 23.9037C13.5306 20.6056 13.228 16.8536 13.9844 14.8263C14.8317 12.557 14.9224 12.6478 11.3823 12.0729C7.87237 11.4677 5.99638 10.8323 2.72854 9.07734C0.913076 8.10909 0.489467 7.98805 0.217147 8.32089C-0.297236 8.92605 0.00534199 9.22862 2.1839 10.4389C4.81633 11.9216 8.68933 13.2832 10.8679 13.5252C12.6531 13.7068 12.6531 13.7068 12.411 14.4935C12.29 14.9171 12.169 16.6418 12.1992 18.306C12.1992 20.8779 12.3505 21.7251 13.1675 24.1457C14.2568 27.2623 14.3475 28.5331 13.6819 30.167C12.7741 32.3456 13.2583 34.0703 15.0132 34.7965C15.7696 35.099 16.163 35.0688 17.3431 34.6754C19.1283 34.0703 20.0057 34.0703 21.8817 34.6452C23.0013 35.0083 24.03 35.0688 26.027 34.9175C28.4174 34.7359 28.7502 34.6452 29.1739 33.9795C29.5672 33.4046 29.5975 33.102 29.3251 32.5271C29.0226 31.8917 28.7502 31.7707 27.6912 31.7707C25.8455 31.7707 22.6684 30.5906 21.4581 29.4106L20.3991 28.4423L20.6109 20.1819C20.8227 12.1031 20.853 11.9216 21.5791 10.8625C21.9725 10.2876 22.3053 9.41017 22.3053 8.89579C22.3053 7.65522 21.2766 6.11207 20.2781 5.87001C19.8242 5.74898 17.9482 5.05305 16.163 4.32686C13.107 3.08629 4.45324 0 4.02963 0C3.9086 0 3.75731 0.211803 3.63628 0.484123Z" fill="#C42225"/>
<path d="M24.4839 4.7202C22.9105 5.83974 22.5474 6.53567 23.3341 6.83825C23.9695 7.08031 27.1466 4.87149 27.1466 4.20582C27.1466 3.32834 26.2389 3.50989 24.4839 4.7202Z" fill="#C42225"/>
<path d="M23.9392 7.71576C23.6064 8.53272 24.151 8.77478 26.2388 8.77478C28.2661 8.77478 28.7502 8.53272 28.4476 7.62498C28.2358 7.08034 24.151 7.1106 23.9392 7.71576Z" fill="#C42225"/>
<path d="M23.0315 9.53116C22.7895 10.1363 23.2433 10.6507 25.0285 11.8005C26.4809 12.7385 27.1466 12.7687 27.1466 11.9518C27.1466 11.5282 23.9695 9.0773 23.4551 9.0773C23.3038 9.0773 23.1223 9.2891 23.0315 9.53116Z" fill="#C42225"/>
</svg>
