<svg width="43" height="35" viewBox="-10 0 43 35" fill="none" xmlns="http://www.w3.org/2000/svg">
<path fill-rule="evenodd" clip-rule="evenodd" d="M0.26934 0.36507C0.338866 0.2342 0.551533 0.0583382 0.678315 0.0256195C0.723302 0.0174408 4.16687 0.00517273 6.38351 0.00108337C10.2238 -0.00300598 11.4425 0.00108337 11.602 0.0746994C11.9456 0.23011 12.0274 0.459133 11.9497 1.06033C11.8176 2.09002 10.7057 9.09734 10.6402 14.232C10.6062 16.8878 10.5787 19.0426 10.555 19.6101C10.5101 20.7675 10.506 24.1783 10.551 25.0494C10.5878 25.7406 10.6327 25.8633 10.9967 26.2436C11.3893 26.6526 11.8474 26.9348 13.97 28.0554C14.4362 28.3008 15.5568 28.9919 16.0557 29.3437C16.5424 29.6872 16.9269 29.8222 17.9984 30.0389C18.8981 30.2189 19.6138 30.4683 20.0228 30.7464C20.1619 30.8405 20.1946 30.8446 20.6281 30.8241C21.352 30.7955 21.7896 30.9591 22.2231 31.4294C22.6198 31.8548 22.767 32.2883 22.7343 32.9304C22.7139 33.2698 22.6934 33.3516 22.5584 33.6297C22.2967 34.1573 21.7937 34.5826 21.1597 34.8035C20.9348 34.8853 20.7999 34.9057 20.444 34.9057C19.9615 34.9057 19.5893 34.8648 18.9186 34.7339C18.391 34.6317 17.9002 34.648 17.3481 34.783C16.6447 34.9548 16.2112 35.0039 15.3605 34.9998C14.1867 34.9998 13.1234 34.8403 11.5366 34.4231L10.8209 34.235H10.0438C9.27086 34.235 9.26268 34.235 8.56333 34.4068C7.181 34.7421 6.77612 34.7953 5.64735 34.7994C4.7476 34.8035 4.60855 34.7953 4.29364 34.7135C3.00537 34.3863 2.37555 33.826 2.02792 32.6972C1.97885 32.5459 1.95022 32.2637 1.93795 31.8302C1.89831 30.7468 2.23424 29.7583 2.57216 28.7639C2.79249 28.1156 3.01367 27.4647 3.13215 26.7835C3.3121 25.7365 3.25894 24.0597 3.00946 22.8001C-1.13614 8.46685 0.207994 0.864021 0.207994 0.671803C0.207994 0.569557 0.236622 0.430508 0.26934 0.36507ZM4.58951 11.5342C4.49136 11.0761 5.74461 10.0073 6.38351 9.53019L7.984 7.23993C7.99763 8.11241 8.01672 9.99642 7.984 10.5526C7.9431 11.2479 7.77951 12.1885 5.64735 14.4788C4.19235 15.3431 4.40103 13.5513 4.5381 12.3744C4.58263 11.992 4.6196 11.6746 4.58951 11.5342Z" fill="#C42225"/>
<path d="M13.6484 7.67794C12.0534 8.81284 11.6853 9.51832 12.4828 9.82505C13.127 10.0704 16.3476 7.8313 16.3476 7.15649C16.3476 6.26698 15.4275 6.45101 13.6484 7.67794Z" fill="#C42225"/>
<path d="M13.0963 10.7146C12.7589 11.5428 13.311 11.7882 15.4275 11.7882C17.4826 11.7882 17.9733 11.5428 17.6666 10.6226C17.4519 10.0705 13.311 10.1012 13.0963 10.7146Z" fill="#C42225"/>
<path d="M12.1761 12.555C11.9307 13.1684 12.3908 13.6899 14.2005 14.8555C15.6728 15.8063 16.3476 15.837 16.3476 15.0088C16.3476 14.5794 13.127 12.0949 12.6055 12.0949C12.4521 12.0949 12.2681 12.3096 12.1761 12.555Z" fill="#C42225"/>
</svg>
