<svg width="43" height="43" viewBox="-4 -4 43 43" fill="none" xmlns="http://www.w3.org/2000/svg">
<path d="M0.189931 0.172588C-0.0560749 0.397511 -0.0631036 0.819233 0.168845 1.09335L0.330506 1.2761L2.01037 1.36747C2.93817 1.42371 4.66021 1.51508 5.84104 1.57834C7.02187 1.63457 8.52602 1.71891 9.17969 1.75406C10.5714 1.8384 10.9931 1.85949 13.7835 2.00006C14.9222 2.05629 15.9835 2.12658 16.1381 2.14064C16.8551 2.23201 17.6493 2.82243 18.0218 3.54638C18.2186 3.92594 18.2397 4.03137 18.2397 4.6007C18.2397 5.14894 18.1976 5.37386 17.9164 6.32274C17.4736 7.79174 15.9765 13.2882 14.9784 17.1048C14.4302 19.1994 13.5656 22.7278 13.4391 23.3534C13.3056 24.0352 13.3056 24.0563 13.4391 24.8646C13.5164 25.3214 13.7343 26.8256 13.9241 28.2102C14.142 29.7776 14.3247 30.832 14.402 30.9866C14.5496 31.3099 14.9643 31.7246 15.6321 32.2166C16.0608 32.5329 16.1803 32.6665 16.2787 32.9265C16.3701 33.1655 16.3912 33.299 16.342 33.4748L16.2717 33.6997L14.9925 33.7208C13.7484 33.7348 13.6992 33.7348 13.3337 33.5591L12.9541 33.3764L12.7362 32.4978C12.5816 31.8511 12.434 31.4435 12.1739 30.9585C11.4992 29.6652 10.3957 28.3438 9.27106 27.4722C8.46979 26.8467 8.09726 26.5023 7.91452 26.2141C7.49279 25.5323 7.40142 24.5975 7.70365 23.986C7.8864 23.6205 8.25893 23.3112 8.61739 23.2198C9.30621 23.0511 9.93177 21.6173 10.234 19.5297C10.3675 18.5879 10.3675 18.2013 10.227 16.8588C10.0583 15.2633 10.0583 12.9087 10.2199 12.2058C10.3465 11.6786 10.6979 10.7227 10.9369 10.2518C11.2461 9.66139 12.0966 7.41219 12.0966 7.1943C12.0966 6.70932 11.4851 6.41411 11.0634 6.70932C10.979 6.77258 10.7752 7.18024 10.5503 7.74254C10.3465 8.25564 10.1637 8.69845 10.1356 8.72657C10.0864 8.7828 9.88959 8.81091 6.78992 9.23966C5.51772 9.41538 4.15414 9.60516 3.76756 9.66139C3.38098 9.71762 2.46724 9.84414 1.73625 9.94254C0.998236 10.048 0.344563 10.1604 0.274276 10.1956C-0.0420174 10.3643 -0.0912186 10.9336 0.182902 11.2077C0.393764 11.4256 0.590569 11.4326 1.88386 11.2499C2.41804 11.1726 3.34584 11.0461 3.94328 10.9617C5.08193 10.8071 7.58417 10.4627 8.72282 10.294C9.08832 10.2448 9.39758 10.2096 9.41164 10.2237C9.4257 10.2377 9.35541 10.4908 9.25701 10.8C8.70174 12.501 8.61036 14.2933 8.93368 17.2243C9.07426 18.4473 9.0602 18.7355 8.82825 19.9444C8.70174 20.5911 8.48384 21.3502 8.32218 21.6946C8.24487 21.8633 8.09726 21.9828 7.75988 22.1515C7.24679 22.4045 6.71963 22.9317 6.48768 23.4307C5.77778 24.9419 6.40334 27.0154 7.90046 28.0837C9.08129 28.9342 9.86851 29.7355 10.5854 30.8179C11.1267 31.6403 11.2251 31.8652 11.464 32.8281C11.5835 33.3061 11.7171 33.7911 11.7592 33.8965C11.8787 34.1987 12.4129 34.6204 12.926 34.8173C13.3829 34.993 13.4532 35 15.0206 35H16.6372L16.9605 34.7962C17.1995 34.6486 17.333 34.4869 17.4736 34.1987C17.6493 33.8403 17.6634 33.7489 17.6353 33.1866C17.5861 32.2447 17.3401 31.8371 16.3631 31.1131C15.5407 30.4946 15.5829 30.5789 15.372 29.0256C15.2666 28.2735 15.0698 26.8959 14.9292 25.9681C14.5918 23.6556 14.5918 23.7048 14.7324 23.0019C14.9081 22.0812 15.9062 18.0607 16.1452 17.2946C16.1733 17.2173 16.6583 17.892 18.3381 20.3451C18.8091 21.0339 19.4979 22.4186 19.7017 23.0722L19.8493 23.5572L19.7017 23.8173C19.4417 24.2812 19.3151 24.8575 19.3503 25.4198C19.4417 26.8045 20.742 28.1399 22.3656 28.5125C22.8225 28.6109 23.0052 28.6179 23.9049 28.5476C25.4934 28.4141 26.3509 28.4352 26.8218 28.6109C27.2436 28.7655 28.2135 29.4051 29.3873 30.3048C30.1675 30.9022 30.4908 31.0358 31.025 30.9655C31.5311 30.8952 32.0231 30.6422 32.6979 30.108C33.0282 29.8409 33.5413 29.4332 33.8435 29.2013C34.5464 28.653 34.7502 28.2665 34.7502 27.5144C34.7432 26.3617 33.949 25.4479 32.9509 25.4409C32.7189 25.4409 32.4518 25.5112 32.1285 25.6518C31.278 26.0243 31.2078 26.0032 30.3432 25.1738C29.6122 24.4709 27.2506 22.2288 26.4212 21.4416C26.0346 21.0761 25.8729 20.8511 25.5637 20.2467C24.91 18.9604 23.7362 16.3528 21.3183 10.8211C20.5803 9.14126 19.8282 7.41219 19.6385 6.98344C19.3011 6.23136 19.294 6.20325 19.3854 5.92913C20.1516 3.7221 18.7528 1.31124 16.4544 0.882492C16.1663 0.826263 15.2174 0.748947 14.3458 0.706772C11.9631 0.587284 3.64807 0.151505 2.31261 0.0671577C0.541368 -0.0382729 0.414851 -0.0312462 0.189931 0.172588ZM19.3714 9.5911C21.5432 14.9259 24.0314 20.4294 24.8046 21.6102C24.9592 21.8422 25.3458 22.271 25.6691 22.5591C25.9924 22.8473 27.1311 23.9297 28.2065 24.963C29.2819 25.9962 30.294 26.9169 30.4557 27.0013C30.7087 27.1348 30.8634 27.163 31.3905 27.163C31.9317 27.1559 32.0864 27.1278 32.4378 26.9661C32.9579 26.7272 33.0563 26.7272 33.2812 26.9943C33.464 27.2051 33.5132 27.5144 33.4078 27.7745C33.3586 27.8939 31.6435 29.2856 31.2499 29.5316C31.1375 29.6019 30.9688 29.6582 30.8774 29.6582C30.779 29.6582 30.287 29.3348 29.6263 28.8428C27.7637 27.4441 27.0749 27.1278 25.88 27.1278C25.5075 27.1278 24.6781 27.163 24.0384 27.2122C22.8998 27.2895 22.8506 27.2895 22.3937 27.1348C21.6416 26.8888 21.0091 26.3617 20.756 25.7713C20.6014 25.4058 20.6506 24.8646 20.8825 24.4358C21.5081 23.262 20.8755 21.7087 18.1976 17.8288C16.7848 15.7764 16.6091 15.4952 16.6723 15.3406C16.7075 15.2492 16.9254 14.4831 17.1573 13.6467C18.057 10.4275 18.7317 8.15021 18.7809 8.19941C18.802 8.23455 19.0691 8.85308 19.3714 9.5911Z" fill="#C42225"/>
<path d="M26.1541 6.76551C26.0065 6.8358 23.6167 9.92142 23.5324 10.1534C23.4762 10.2869 23.4129 10.1393 23.0193 8.9866C22.5624 7.64411 22.3867 7.40513 21.9439 7.47542C21.6417 7.51759 21.3746 7.79874 21.3746 8.07286C21.3746 8.17829 21.6628 9.09906 22.0072 10.1253C22.6819 12.0933 22.7944 12.2971 23.188 12.2971C23.2934 12.2901 23.4481 12.255 23.5324 12.2058C23.6167 12.1566 24.0877 11.5802 24.5797 10.9265C25.0717 10.2658 25.4934 9.72461 25.5145 9.71056C25.5426 9.70353 25.5567 9.7949 25.5426 9.92142C25.2685 12.993 25.2755 13.1195 25.6691 13.3233C25.8308 13.4006 26.0417 13.4077 26.871 13.3514C27.4263 13.3163 28.0308 13.2812 28.2276 13.2812H28.572L27.9464 13.8575C27.595 14.1738 27.0538 14.6869 26.7375 15.0032C26.2455 15.4812 26.1541 15.6077 26.1541 15.7974C26.1541 16.2121 26.3017 16.3246 27.595 16.901C28.2698 17.2102 28.811 17.4633 28.804 17.4703C28.7758 17.4984 27.3982 17.6952 26.857 17.7514C26.604 17.7796 26.3017 17.8358 26.1752 17.885C25.9151 17.9974 25.7043 18.3559 25.7605 18.5879C25.8027 18.7565 27.4404 21.0549 27.7215 21.3431C28.087 21.7156 28.6985 21.5399 28.7969 21.0479C28.8532 20.7176 28.811 20.6332 28.1643 19.7617C27.8691 19.368 27.6302 19.0307 27.6302 19.0236C27.6302 19.0096 27.8902 18.9604 28.2135 18.9182C29.4857 18.7425 30.3573 18.63 30.7579 18.5879C31.5662 18.5035 31.9177 18.2786 31.9177 17.8428C31.9177 17.4773 31.6717 17.3086 29.8442 16.4792C28.8813 16.0364 28.08 15.6498 28.073 15.6217C28.0589 15.5866 28.6985 14.9681 29.4857 14.2371C30.28 13.5131 30.9407 12.8735 30.9618 12.8102C31.0602 12.5572 31.0039 12.2198 30.8212 12.0371L30.6385 11.8543L29.5771 11.9035C28.9867 11.9246 28.1011 11.9668 27.602 11.9949L26.6953 12.0371L26.7375 11.5169C26.9905 8.49459 27.0749 7.27158 27.0397 7.12398C26.9905 6.94826 26.625 6.67414 26.4353 6.67414C26.379 6.67414 26.2525 6.71631 26.1541 6.76551Z" fill="#C42225"/>
<path d="M7.04998 11.6084C6.96563 11.7068 6.83912 12.0301 6.74774 12.3956L6.59311 13.0141L6.34008 12.979C6.1995 12.9579 5.58097 12.8244 4.96947 12.6838C3.76053 12.4097 3.46532 12.4026 3.27554 12.6697C3.0436 13.0001 3.12794 13.2812 3.77458 14.2442C4.11196 14.7362 4.45637 15.2422 4.54775 15.3688C4.72346 15.6007 4.75861 15.7413 4.65318 15.7413C4.61803 15.7413 4.35797 15.8467 4.06979 15.9803C3.78864 16.1138 3.24743 16.3598 2.87491 16.5355C2.28449 16.8097 2.17203 16.894 2.0666 17.1119C1.94711 17.3579 1.94711 17.379 2.08066 17.625C2.20718 17.8569 2.32666 17.9272 3.47938 18.4263C4.17522 18.7285 4.75158 18.9886 4.76564 19.0026C4.7797 19.0096 4.45637 19.6071 4.04871 20.317C3.64104 21.0269 3.31069 21.6665 3.31069 21.7368C3.31069 21.9617 3.50749 22.2569 3.72538 22.3483C3.97139 22.4467 3.94327 22.4537 6.0519 21.5822C6.80397 21.2659 7.47873 20.9566 7.54902 20.8863C7.61931 20.816 7.68959 20.6473 7.71068 20.5068C7.74582 20.3029 7.71771 20.2186 7.54902 20.0288C7.26787 19.7125 7.01483 19.7266 6.21356 20.078C5.85509 20.2397 5.55989 20.3521 5.55989 20.3381C5.55989 20.317 5.74966 19.9796 5.98161 19.586C6.21356 19.1854 6.40333 18.7918 6.40333 18.7004C6.40333 18.3138 6.22762 18.1662 5.35605 17.7866C4.89215 17.5898 4.48449 17.4282 4.44232 17.4282C4.2174 17.4282 4.44934 17.2735 5.19439 16.9362C6.08704 16.5355 6.40333 16.2755 6.40333 15.9592C6.40333 15.8256 6.22059 15.4953 5.86915 14.9752C5.57394 14.5394 5.34902 14.1668 5.37011 14.1528C5.38417 14.1317 5.72857 14.202 6.12218 14.3004C7.49279 14.6378 7.54902 14.6026 7.91451 13.1406C8.18863 12.0371 8.19566 11.8403 7.94966 11.5943C7.74582 11.3905 7.24678 11.4045 7.04998 11.6084Z" fill="#C42225"/>
</svg>
