<svg width="24" height="6" viewBox="-6.5 0 24 6" fill="none" xmlns="http://www.w3.org/2000/svg">
<g clip-path="url(#clip0_57_719)">
<path fill-rule="evenodd" clip-rule="evenodd" d="M5.0957 4.85461L0.919105 0.555009C0.895277 0.529863 0.866575 0.509835 0.834751 0.496148C0.802927 0.482462 0.768647 0.475403 0.734005 0.475403C0.699362 0.475403 0.665083 0.482462 0.633258 0.496148C0.601434 0.509835 0.572733 0.529863 0.548905 0.555009C0.499524 0.606132 0.471924 0.674432 0.471924 0.745509C0.471924 0.816586 0.499524 0.884886 0.548905 0.936009L4.9115 5.42701C4.93542 5.452 4.96415 5.47189 4.99596 5.48548C5.02778 5.49907 5.06201 5.50607 5.0966 5.50607C5.1312 5.50607 5.16543 5.49907 5.19724 5.48548C5.22906 5.47189 5.25779 5.452 5.2817 5.42701L9.6425 0.936009C9.69166 0.885073 9.71937 0.817196 9.7199 0.746409C9.72012 0.711267 9.71339 0.676429 9.70011 0.643893C9.68682 0.611357 9.66725 0.581764 9.6425 0.556809C9.61859 0.531816 9.58986 0.511926 9.55804 0.498337C9.52623 0.484748 9.492 0.477743 9.4574 0.477743C9.42281 0.477743 9.38858 0.484748 9.35676 0.498337C9.32495 0.511926 9.29622 0.531816 9.2723 0.556809L5.0957 4.85461Z" fill="#2BAFE6"/>
<path fill-rule="evenodd" clip-rule="evenodd" d="M5.0957 4.85461L0.919105 0.555009C0.895277 0.529863 0.866575 0.509835 0.834751 0.496148C0.802927 0.482462 0.768647 0.475403 0.734005 0.475403C0.699362 0.475403 0.665083 0.482462 0.633258 0.496148C0.601434 0.509835 0.572733 0.529863 0.548905 0.555009C0.499524 0.606132 0.471924 0.674432 0.471924 0.745509C0.471924 0.816586 0.499524 0.884886 0.548905 0.936009L4.9115 5.42701C4.93542 5.452 4.96415 5.47189 4.99596 5.48548C5.02778 5.49907 5.06201 5.50607 5.0966 5.50607C5.1312 5.50607 5.16543 5.49907 5.19724 5.48548C5.22906 5.47189 5.25779 5.452 5.2817 5.42701L9.6425 0.936009C9.69166 0.885073 9.71937 0.817196 9.7199 0.746409C9.72012 0.711267 9.71339 0.676429 9.70011 0.643893C9.68682 0.611357 9.66725 0.581764 9.6425 0.556809C9.61859 0.531816 9.58986 0.511926 9.55804 0.498337C9.52623 0.484748 9.492 0.477743 9.4574 0.477743C9.42281 0.477743 9.38858 0.484748 9.35676 0.498337C9.32495 0.511926 9.29622 0.531816 9.2723 0.556809L5.0957 4.85461Z" fill="#2BAFE6"/>
</g>
<defs>
<clipPath id="clip0_57_719">
<rect width="10.2" height="6" fill="white"/>
</clipPath>
</defs>
</svg>
