<svg width="36" height="36" viewBox="0 0 36 36" fill="none" xmlns="http://www.w3.org/2000/svg">
<circle cx="18" cy="18" r="17.5" fill="white" stroke="#2BAFE6"/>
<circle cx="18" cy="18" r="14" fill="#2BAFE6"/>
<path d="M26.7 23.0144L26.1699 23.7664C24.9264 25.5282 23.1467 26.8408 21.0963 27.5085C19.0458 28.1762 16.8345 28.1632 14.792 27.4715C12.7496 26.7797 10.9854 25.4463 9.76275 23.67C8.54005 21.8937 7.9243 19.7698 8.00732 17.6149C8.09035 15.4601 8.86771 13.3899 10.2235 11.7129C11.5792 10.036 13.4407 8.84224 15.5303 8.3097C17.62 7.77715 19.8258 7.93436 21.8188 8.75786C23.8117 9.58136 25.4851 11.027 26.5894 12.8793" stroke="white" stroke-width="2" stroke-linecap="round" stroke-linejoin="round"/>
<path fill-rule="evenodd" clip-rule="evenodd" d="M20.5858 19.1202H12V17.1202H20.5858L17.2929 13.8273L18.7071 12.4131L24.4142 18.1202L18.7071 23.8273L17.2929 22.4131L20.5858 19.1202Z" fill="white"/>
</svg>
