<svg width="36" height="36" viewBox="0 0 36 36" fill="none" xmlns="http://www.w3.org/2000/svg">
<circle cx="18" cy="18" r="17.5" fill="white" stroke="#2BAFE6"/>
<circle cx="18" cy="18" r="14" fill="#2BAFE6"/>
<path d="M28 17.0857V18.0057C27.9988 20.1621 27.3005 22.2604 26.0093 23.9875C24.7182 25.7147 22.9033 26.9782 20.8354 27.5896C18.7674 28.201 16.5573 28.1276 14.5345 27.3803C12.5117 26.633 10.7847 25.2518 9.61096 23.4428C8.43727 21.6338 7.87979 19.4938 8.02168 17.342C8.16356 15.1903 8.99721 13.1421 10.3983 11.5028C11.7994 9.86354 13.6928 8.72111 15.7962 8.24587C17.8996 7.77063 20.1003 7.98806 22.07 8.86572" stroke="white" stroke-width="2" stroke-linecap="round" stroke-linejoin="round"/>
<path d="M25 12L17.3077 20L15 17.6024" stroke="white" stroke-width="2" stroke-linecap="round" stroke-linejoin="round"/>
</svg>
