<svg width="82" height="82" viewBox="0 0 82 82" fill="none" xmlns="http://www.w3.org/2000/svg">
<rect x="1.5" y="1.5" width="79" height="79" rx="39.5" stroke="#2BAFE6" stroke-width="3"/>
<rect x="10" y="10" width="62" height="62" rx="31" fill="#2BAFE6"/>
<path d="M38.3685 48.7601C38.3924 48.7791 38.4159 48.7987 38.4393 48.8183L37.5023 46.6051C37.1932 46.8348 36.9279 47.0306 36.7383 47.1681C37.6862 47.6183 38.2793 48.3357 38.3685 48.7601Z" fill="#F7F1E6"/>
<path d="M34.9656 46.6966C35.0265 45.9386 35.1039 45.1086 35.1554 44.5729C35.0326 44.6095 34.9088 44.6478 34.7832 44.6881C34.7998 44.8866 34.8406 45.1352 34.8714 45.4468C34.9063 45.7989 34.9472 46.2155 34.9656 46.6966Z" fill="#F7F1E6"/>
<path d="M52.1707 46.9342C51.5798 46.5998 51.0176 46.3024 50.4789 46.0355C50.7394 46.9894 50.8532 48.0006 50.8367 48.7098C50.8365 48.7194 50.8364 48.7287 50.8362 48.7382C52.0913 49.1183 53.0074 50.3039 53.0074 51.7086C53.0074 53.4198 51.6483 54.8072 49.9722 54.8072C48.2958 54.8072 46.9369 53.4198 46.9369 51.7086C46.9369 49.9974 48.2958 48.6102 49.9722 48.6102C49.9775 48.6102 49.9827 48.6105 49.9881 48.6105C50.0033 47.6638 49.9047 46.4999 49.567 45.6026C48.6628 45.1939 47.8294 44.8787 47.0476 44.6354C47.103 45.2133 47.1846 46.0923 47.2448 46.8649C47.3449 48.1485 46.2462 47.7 45.7224 47.3546C45.6478 47.3055 45.476 47.1816 45.2425 47.0101L41.3047 55.5866L39.8739 52.2067C39.8395 52.2632 39.7975 52.3139 39.7491 52.3573C39.7578 52.4936 39.7626 52.6312 39.7626 52.7702C39.7626 53.8937 39.4836 54.9587 38.9764 55.7681C38.6818 56.2387 38.3197 56.5987 37.9118 56.8371C37.9142 56.8619 37.9158 56.8869 37.9158 56.9124C37.9158 57.296 37.6268 57.607 37.2706 57.607C36.9144 57.607 36.3033 57.2961 36.3033 56.9124C36.3033 56.5286 36.9145 56.218 37.2706 56.218C37.3987 56.218 37.5177 56.2586 37.618 56.3279C38.6542 55.7459 39.2046 54.2225 39.2046 52.7701C39.2046 52.6785 39.2017 52.5878 39.1976 52.4975C38.9477 52.4344 38.7479 52.2116 38.7121 51.9212C38.4882 50.0967 37.0903 49.0598 34.8807 49.0764H34.876C34.8719 49.0764 34.8687 49.0758 34.8649 49.0758C32.8302 49.1525 31.5483 50.1756 31.3349 51.9155C31.2993 52.2057 31.0995 52.4287 30.8497 52.4918C30.8456 52.582 30.8428 52.6726 30.8428 52.764C30.8428 54.2165 31.3929 55.7398 32.4288 56.3218C32.5293 56.2524 32.6483 56.2116 32.7764 56.2116C33.1327 56.2116 33.7441 56.5226 33.7441 56.9064C33.7441 57.2898 33.1327 57.601 32.7764 57.601C32.4202 57.601 32.1311 57.2899 32.1311 56.9064C32.1311 56.8809 32.1327 56.8557 32.1351 56.8308C31.7273 56.5924 31.3652 56.2326 31.0704 55.7621C30.5634 54.9523 30.2844 53.8876 30.2844 52.7639C30.2844 52.625 30.2892 52.4874 30.2978 52.3511C30.1361 52.2057 30.0445 51.9776 30.0741 51.7362C30.2141 50.5962 30.7026 49.6214 31.4873 48.9153C31.4826 48.8997 31.4801 48.8827 31.4801 48.8643C31.4801 48.3472 32.4973 47.1565 34.1191 46.8398C34.1043 46.3439 34.063 45.9174 34.0251 45.5335C34.0052 45.3315 33.9867 45.1437 33.9748 44.9679C32.7446 45.4223 31.3835 46.0546 29.8294 46.9338C27.7033 48.1365 24.8409 48.8107 24.8409 52.0239C24.8409 53.813 22.8409 56.5632 22.8409 58.6498C22.8409 61.0801 30.8428 67.5538 40.75 67.5538C50.4789 67.5538 59.159 61.1827 59.159 58.6498C59.159 56.5632 57.159 53.8129 57.159 52.0239C57.1591 48.8111 54.2967 48.1369 52.1707 46.9342Z" fill="white"/>
<path d="M41.101 43.9055C41.0992 43.9055 41.0974 43.9056 41.0957 43.9056C41.0939 43.907 41.0917 43.9087 41.0893 43.9105C40.9523 44.014 38.834 45.615 37.5022 46.6049L38.4392 48.8182C38.4766 48.8494 38.5142 48.8805 38.5506 48.9131C39.3406 49.6195 39.8325 50.5975 39.9727 51.742C39.9935 51.9113 39.9544 52.0742 39.8738 52.2066L41.3046 55.5865L45.2423 47.01C44.0607 46.1424 41.2656 44.03 41.1076 43.9105C41.1049 43.9086 41.1026 43.9069 41.101 43.9055Z" fill="#00699C"/>
<path d="M41.0892 43.8982L41.0984 43.9037L41.1076 43.8982L44.7047 41.6939L44.7158 41.7052V39.869C43.6018 40.5408 42.3787 40.9317 41.0985 40.9317C39.8183 40.9317 38.5953 40.5408 37.4812 39.869V41.7052L37.4922 41.6941L41.0892 43.8982Z" fill="#DEDEDE"/>
<path d="M41.0992 43.9037C41.0992 43.9037 41.0978 43.9047 41.0957 43.9065C41.098 43.9065 41.1002 43.9063 41.1025 43.9063C41.1006 43.9047 41.0992 43.9037 41.0992 43.9037Z" fill="#DEC8AE"/>
<path d="M44.7158 39.869C47.3654 38.2711 49.3983 35.0836 50.1196 31.7844C49.9576 31.4235 49.7757 30.8314 49.5636 29.9986C49.526 30.2317 49.5038 30.4352 49.5089 30.5893C49.5455 31.6941 48.6687 32.9032 48.658 30.5578C48.649 28.5321 45.3097 23.7803 45.1004 23.6531C44.0166 24.5478 41.1965 26.2136 39.0519 26.7145C38.6885 26.7994 38.0749 26.7506 38.51 26.3758C38.8849 26.0529 39.0727 25.6287 39.2082 25.2001C39.363 24.7105 37.3368 26.4733 35.8472 27.2713C35.4687 27.4739 34.6796 27.8214 35.2686 27.105C35.625 26.6715 35.6564 26.3647 35.6797 26.0253C33.5617 27.2077 33.5981 28.8198 33.6013 30.6613C33.6038 32.2693 32.7494 32.7549 32.649 31.3356C32.5309 31.9001 32.3845 32.2591 32.231 32.4146C33.0604 35.4841 35.0007 38.373 37.4812 39.8689C38.5952 40.5407 39.8182 40.9316 41.0985 40.9316C42.3788 40.9316 43.6018 40.5408 44.7158 39.869Z" fill="white"/>
<path d="M48.9604 44.6033C49.218 44.8534 49.4159 45.2015 49.5668 45.6025C49.9045 46.4996 50.0031 47.6637 49.9878 48.6104C50.2824 48.612 50.567 48.6567 50.8361 48.7381C50.8363 48.7285 50.8364 48.7193 50.8366 48.7097C50.8531 48.0005 50.7393 46.9893 50.4788 46.0353C50.196 44.9999 49.7404 44.032 49.089 43.5911C47.8399 42.7458 46.3819 42.7787 45.6628 42.6635L46.5048 43.5155C47.9296 43.7469 48.2304 43.8951 48.9604 44.6033Z" fill="#2B3237"/>
<path d="M32.649 31.3357C32.7494 32.7551 33.6038 32.2695 33.6013 30.6614C33.5982 28.82 33.5619 27.2078 35.6797 26.0254C35.6564 26.3648 35.6249 26.6716 35.2686 27.1051C34.6796 27.8216 35.4688 27.474 35.8472 27.2714C37.3369 26.4734 39.3632 24.7107 39.2083 25.2003C39.0728 25.6288 38.8849 26.053 38.5101 26.3759C38.0749 26.7507 38.6885 26.7995 39.0519 26.7147C41.1966 26.2137 44.0167 24.548 45.1004 23.6532C45.3098 23.7805 48.6491 28.5323 48.658 30.5579C48.6686 32.9033 49.5454 31.6943 49.5089 30.5894C49.5038 30.4353 49.526 30.2318 49.5637 29.9987C49.7758 30.8315 49.9575 31.4236 50.1196 31.7845C50.625 31.3357 51.0012 30.6789 51.3125 28.8438C51.4991 27.7436 52.5133 23.4134 51.5 20.8751C48.4377 12.1869 35.1076 12.5087 31.3056 20.6084C30.1533 23.0633 30.6269 25.0496 30.7188 26.3759C30.8684 28.536 31.5625 31.3357 32.2311 32.4149C32.3846 32.2593 32.5309 31.9003 32.649 31.3357Z" fill="#00699C"/>
<path d="M49.972 48.5819C48.2803 48.5819 46.9091 49.9818 46.9091 51.7085C46.9091 53.4353 48.2803 54.8352 49.972 54.8352C51.6635 54.8352 53.0348 53.4354 53.0348 51.7085C53.0348 50.2911 52.1104 49.0947 50.8439 48.7112C50.5724 48.629 50.2852 48.5839 49.988 48.5822C49.9826 48.5824 49.9773 48.5819 49.972 48.5819ZM52.4818 51.7086C52.4818 53.1238 51.3582 54.2711 49.972 54.2711C48.5854 54.2711 47.4618 53.1238 47.4618 51.7086C47.4618 50.2934 48.5854 49.1462 49.972 49.1462C51.3582 49.1462 52.4818 50.2934 52.4818 51.7086Z" fill="#D6D6D6"/>
<path d="M47.4662 51.7087C47.4662 53.1215 48.5879 54.2668 49.9721 54.2668C51.356 54.2668 52.4778 53.1215 52.4778 51.7087C52.4778 50.2959 51.356 49.1505 49.9721 49.1505C48.5879 49.1505 47.4662 50.2959 47.4662 51.7087ZM51.1591 51.7087C51.1591 52.3779 50.6275 52.9204 49.9721 52.9204C49.3165 52.9204 48.785 52.3779 48.785 51.7087C48.785 51.0393 49.3165 50.4969 49.9721 50.4969C50.6275 50.4968 51.1591 51.0393 51.1591 51.7087Z" fill="#2B3237"/>
<path d="M49.972 52.9207C50.6278 52.9207 51.1594 52.378 51.1594 51.7085C51.1594 51.039 50.6278 50.4963 49.972 50.4963C49.3162 50.4963 48.7845 51.039 48.7845 51.7085C48.7845 52.378 49.3162 52.9207 49.972 52.9207Z" fill="#1B2327"/>
<path d="M30.6216 52.5049C30.4976 52.4873 30.3872 52.4318 30.2979 52.3516C30.2893 52.4878 30.2844 52.6254 30.2844 52.7643C30.2844 53.888 30.5635 54.9528 31.0705 55.7626C31.3651 56.233 31.7273 56.5928 32.1352 56.8312C32.1567 56.6173 32.2687 56.4328 32.4288 56.3221C31.3928 55.74 30.8427 54.2167 30.8427 52.7643C30.8427 52.6728 30.8456 52.5823 30.8497 52.4921C30.7769 52.5104 30.7002 52.5159 30.6216 52.5049Z" fill="#2B3237"/>
<path d="M39.1974 52.4976C39.2015 52.5879 39.2044 52.6786 39.2044 52.7702C39.2044 54.2226 38.6541 55.746 37.6178 56.328C37.7781 56.4385 37.8901 56.6231 37.9116 56.8372C38.3194 56.5988 38.6817 56.2388 38.9763 55.7682C39.4833 54.9586 39.7625 53.8938 39.7625 52.7703C39.7625 52.6313 39.7576 52.4938 39.749 52.3574C39.6598 52.4376 39.5495 52.4929 39.4258 52.5105C39.3471 52.5215 39.2702 52.516 39.1974 52.4976Z" fill="#2B3237"/>
<path d="M32.1352 56.8312C32.1328 56.8561 32.1312 56.8812 32.1312 56.9068C32.1312 57.2902 32.4203 57.6014 32.7765 57.6014C33.1328 57.6014 33.7442 57.2903 33.7442 56.9068C33.7442 56.523 33.1328 56.212 32.7765 56.212C32.6484 56.212 32.5293 56.2527 32.4289 56.3222C32.2687 56.4327 32.1567 56.6171 32.1352 56.8312Z" fill="#00699C"/>
<path d="M37.6179 56.3278C37.5175 56.2586 37.3985 56.2179 37.2705 56.2179C36.9143 56.2179 36.3032 56.5286 36.3032 56.9124C36.3032 57.2959 36.9144 57.6069 37.2705 57.6069C37.6267 57.6069 37.9157 57.2961 37.9157 56.9124C37.9157 56.8869 37.9142 56.8617 37.9117 56.8371C37.8902 56.6229 37.7781 56.4384 37.6179 56.3278Z" fill="#00699C"/>
<path d="M34.9604 46.7616C35.7356 46.9414 35.5838 46.8428 36.7383 47.168C36.9279 47.0304 37.1932 46.8346 37.5023 46.6049C38.8341 45.6149 40.9524 44.014 41.0894 43.9105C41.0917 43.9087 41.094 43.907 41.0958 43.9056C41.0974 43.9044 41.0985 43.9035 41.0985 43.9035L41.0894 43.898L37.4812 41.6823L35.2114 44.002C35.2114 44.002 35.1889 44.2256 35.1554 44.5728C35.1039 45.1086 35.0265 45.9385 34.9656 46.6966C34.9639 46.7183 34.9621 46.74 34.9604 46.7616Z" fill="#F1F1F1"/>
<path d="M41.1077 43.8981L41.0985 43.9036C41.0985 43.9036 41.0996 43.9044 41.101 43.9056C41.1028 43.9069 41.1051 43.9086 41.1077 43.9105C41.2657 44.0299 44.0608 46.1424 45.2424 47.0101C45.476 47.1815 45.6478 47.3054 45.7223 47.3545C46.2461 47.6999 47.3448 48.1484 47.2448 46.8648C47.1846 46.0922 47.103 45.2132 47.0476 44.6353C47.0109 44.2528 46.9856 44.0019 46.9856 44.0019L46.5048 43.5154L45.6629 42.6634L44.7157 41.6857L41.1077 43.8981Z" fill="#F1F1F1"/>
<path d="M34.1192 46.8401C34.3753 46.7902 34.6458 46.7612 34.9304 46.7609C34.9404 46.7609 34.9502 46.7614 34.9603 46.7615C34.9621 46.74 34.9637 46.7183 34.9655 46.6965C34.947 46.2153 34.9062 45.7988 34.8714 45.4468C34.8405 45.1352 34.7997 44.8866 34.7832 44.6881C34.7662 44.4846 34.7747 44.3339 34.846 44.2241C34.9388 44.0814 34.882 43.9991 35.2114 44.0019C35.8091 43.3972 36.1289 43.0896 36.1289 43.0896C35.9167 43.1517 35.5593 43.1265 35.3675 43.1239C35.0034 43.1218 34.5513 43.1162 34.1962 43.6635C33.9648 44.0201 33.9395 44.4388 33.975 44.9681C33.9868 45.1439 34.0054 45.3318 34.0254 45.5337C34.0631 45.9178 34.1044 46.3441 34.1192 46.8401Z" fill="#2B3237"/>
<path d="M35.1122 47.7013C35.133 47.7013 35.1542 47.7013 35.1754 47.7015C35.2173 47.7015 35.2582 47.7066 35.2982 47.7154C36.5398 47.7717 37.5697 48.1223 38.3684 48.7599C38.2791 48.3356 37.6862 47.6183 36.7381 47.1679C36.3082 46.9906 35.549 46.758 34.9603 46.7615C34.9502 46.7614 34.9404 46.7609 34.9304 46.7609C34.6458 46.7611 34.3753 46.7901 34.1192 46.8401C32.4974 47.1567 31.4802 48.3475 31.4802 48.8645C31.4802 48.883 31.4828 48.8999 31.4874 48.9156C31.4905 48.9129 31.4933 48.91 31.4963 48.9073C32.3912 48.1068 33.6076 47.7013 35.1122 47.7013Z" fill="#E4E4E4"/>
<path d="M39.9726 51.7422C39.8324 50.5978 39.3405 49.6197 38.5505 48.9133C38.5141 48.8807 38.4766 48.8497 38.4391 48.8184C38.4157 48.7987 38.3922 48.7791 38.3683 48.7601C37.5697 48.1224 36.5398 47.7719 35.2981 47.7155C35.2583 47.7067 35.2174 47.7016 35.1754 47.7016C35.1542 47.7014 35.133 47.7014 35.1122 47.7014C33.6076 47.7014 32.3911 48.107 31.4962 48.9074C31.4931 48.9101 31.4904 48.913 31.4873 48.9157C30.7026 49.6218 30.214 50.5966 30.0741 51.7366C30.0445 51.978 30.1362 52.2061 30.2978 52.3515C30.3872 52.4318 30.4977 52.4872 30.6216 52.5048C30.7 52.516 30.7768 52.5105 30.8496 52.492C31.0994 52.4287 31.2992 52.2058 31.3348 51.9156C31.5482 50.1757 32.8301 49.1526 34.8648 49.076C34.8686 49.076 34.8718 49.0766 34.8759 49.0766C34.8774 49.0766 34.8791 49.0766 34.8805 49.0766C37.0901 49.06 38.4879 50.0969 38.712 51.9214C38.7477 52.2118 38.9476 52.4346 39.1975 52.4977C39.2704 52.5161 39.3471 52.5216 39.4257 52.5105C39.5494 52.4929 39.6597 52.4377 39.7489 52.3574C39.7973 52.314 39.8393 52.2633 39.8737 52.2068C39.9544 52.0744 39.9935 51.9116 39.9726 51.7422Z" fill="#D8D8D8"/>
</svg>
