<svg width="12" height="52" viewBox="0 0 12 52" fill="none" xmlns="http://www.w3.org/2000/svg">
<path d="M11.5093 8.72612e-05L10.5398 35.6464H1.44182L0.447499 8.72612e-05H11.5093ZM5.99082 51.5555C4.3502 51.5555 2.94158 50.9755 1.76497 49.8154C0.588361 48.6388 0.00834165 47.2302 0.0249138 45.5896C0.00834165 43.9655 0.588361 42.5735 1.76497 41.4134C2.94158 40.2534 4.3502 39.6734 5.99082 39.6734C7.56516 39.6734 8.94892 40.2534 10.1421 41.4134C11.3353 42.5735 11.9402 43.9655 11.9567 45.5896C11.9402 46.6833 11.6502 47.6859 11.0867 48.5974C10.5398 49.4923 9.81895 50.2132 8.92406 50.76C8.02917 51.2903 7.05143 51.5555 5.99082 51.5555Z" fill="#2BAEE2"/>
</svg>
