<svg width="40" height="40" viewBox="0 0 40 40" fill="none" xmlns="http://www.w3.org/2000/svg">
<path d="M27.07 27.0702C30.98 23.1602 30.98 16.8302 27.07 12.9302" stroke="white" stroke-width="1.5" stroke-linecap="round" stroke-linejoin="round"/>
<path d="M12.93 12.9302C9.02 16.8402 9.02 23.1702 12.93 27.0702" stroke="white" stroke-width="1.5" stroke-linecap="round" stroke-linejoin="round"/>
<path d="M16.7 29.4102C17.77 29.7802 18.88 29.9602 20 29.9602C21.12 29.9502 22.23 29.7802 23.3 29.4102" stroke="white" stroke-width="1.5" stroke-linecap="round" stroke-linejoin="round"/>
<path d="M16.7 10.5901C17.77 10.2201 18.88 10.04 20 10.04C21.12 10.04 22.23 10.2201 23.3 10.5901" stroke="white" stroke-width="1.5" stroke-linecap="round" stroke-linejoin="round"/>
<path d="M16.74 20.0001V18.3302C16.74 16.2502 18.21 15.4001 20.01 16.4401L21.46 17.2802L22.91 18.1201C24.71 19.1601 24.71 20.8602 22.91 21.9002L21.46 22.7401L20.01 23.5802C18.21 24.6202 16.74 23.7701 16.74 21.6901V20.0001Z" stroke="white" stroke-width="1.5" stroke-miterlimit="10" stroke-linecap="round" stroke-linejoin="round"/>
</svg>
