<svg width="74" height="75" viewBox="0 0 74 75" fill="none" xmlns="http://www.w3.org/2000/svg">
<path d="M43.8367 16.5002C43.8367 16.5002 54.5701 19.0564 58.0001 31.0865" stroke="white" stroke-miterlimit="10" stroke-linecap="round" stroke-linejoin="round"/>
<path d="M42.5066 21.7063C42.5066 21.7063 50.4166 24.2624 52.7966 32.2356" stroke="white" stroke-miterlimit="10" stroke-linecap="round" stroke-linejoin="round"/>
<path d="M41.5265 26.5605C41.5265 26.5605 46.4032 28.9525 47.6632 33.1971" stroke="white" stroke-miterlimit="10" stroke-linecap="round" stroke-linejoin="round"/>
<path d="M41.0833 33.3848C45.9367 38.2625 45.96 42.1788 45.96 42.1788L43.8133 44.3362C43.5567 44.5942 43.16 44.6645 42.8333 44.4769C41.1067 43.492 37.4433 43.6562 36.9767 44.1486C36.44 44.688 36.9767 44.1486 36.9767 44.1486L27.1767 53.9979C26.9433 54.2324 26.6167 54.3731 26.2667 54.3731L19.8267 54.7483L20.1533 48.229C20.1767 47.9242 20.3167 47.6428 20.5267 47.4082L30.3733 37.5121C30.3733 37.5121 29.8133 38.0749 30.3733 37.5121C30.8633 37.0197 31.0267 33.3379 30.0467 31.626C29.86 31.3212 29.93 30.899 30.1867 30.6411L32.3333 28.4836C32.3567 28.5071 36.23 28.5071 41.0833 33.3848Z" stroke="white" stroke-miterlimit="10" stroke-linecap="round" stroke-linejoin="round"/>
<path d="M32.8466 41.5688L30.0233 44.4063" stroke="white" stroke-miterlimit="10" stroke-linecap="round" stroke-linejoin="round"/>
<path d="M19.8499 54.7478L15.9999 58.4999" stroke="white" stroke-miterlimit="10" stroke-linecap="round" stroke-linejoin="round"/>
</svg>
