<svg width="74" height="75" viewBox="0 0 74 75" fill="none" xmlns="http://www.w3.org/2000/svg">
<g clip-path="url(#clip0_6_1170)">
<path d="M51.7453 41.1047C51.7453 40.5231 51.2897 40.05 50.7297 40.05H47.4947C46.9347 40.05 46.4791 40.5231 46.4791 41.1047V44.4641C46.4791 45.0456 46.9347 45.5188 47.4947 45.5188H50.7297C51.2897 45.5188 51.7453 45.0456 51.7453 44.4641V41.1047ZM50.6168 44.3469H47.6076V41.2219H50.6168V44.3469ZM54.5665 46.1173C54.8781 46.1173 55.1307 45.8549 55.1307 45.5313V22.782C55.1307 21.1709 53.8686 19.8604 52.3174 19.8604H51.0808C50.8169 18.5155 49.6636 17.5 48.2847 17.5C46.9057 17.5 45.7524 18.5155 45.4885 19.8603H43.5576C43.2938 18.5155 42.1404 17.5 40.7615 17.5C39.3826 17.5 38.2292 18.5155 37.9654 19.8603H36.0345C35.7706 18.5155 34.6173 17.5 33.2384 17.5C31.8594 17.5 30.7061 18.5155 30.4422 19.8603H28.5113C28.2475 18.5155 27.0941 17.5 25.7152 17.5C24.3363 17.5 23.1829 18.5155 22.9191 19.8603H21.6825C20.1312 19.8603 18.8691 21.1709 18.8691 22.782V54.5784C18.8691 56.1894 20.1312 57.5 21.6825 57.5H52.3173C53.8686 57.5 55.1307 56.1894 55.1307 54.5784V48.2658C55.1307 47.9422 54.8781 47.6798 54.5665 47.6798C54.2549 47.6798 54.0022 47.9422 54.0022 48.2658V54.5784C54.0022 55.5433 53.2464 56.3281 52.3174 56.3281H21.6825C20.7535 56.3281 19.9976 55.5432 19.9976 54.5784V28.0688H22.8475C23.1591 28.0688 23.4117 27.8064 23.4117 27.4828C23.4117 27.1592 23.1591 26.8969 22.8475 26.8969H19.9976V22.782C19.9976 21.8171 20.7535 21.0323 21.6825 21.0323H22.9191C23.1829 22.377 24.3363 23.3926 25.7152 23.3926C26.0268 23.3926 26.2794 23.1302 26.2794 22.8066C26.2794 22.483 26.0268 22.2207 25.7152 22.2207C24.9638 22.2207 24.3236 21.7235 24.0878 21.0323H30.4422C30.7061 22.377 31.8594 23.3926 33.2384 23.3926C33.55 23.3926 33.8026 23.1302 33.8026 22.8066C33.8026 22.483 33.55 22.2207 33.2384 22.2207C32.4869 22.2207 31.8467 21.7235 31.6109 21.0323H37.9654C38.2292 22.377 39.3826 23.3926 40.7615 23.3926C41.0731 23.3926 41.3257 23.1302 41.3257 22.8066C41.3257 22.483 41.0731 22.2207 40.7615 22.2207C40.0101 22.2207 39.3699 21.7235 39.1341 21.0323H45.4885C45.7524 22.377 46.9057 23.3926 48.2847 23.3926C48.5963 23.3926 48.8489 23.1302 48.8489 22.8066C48.8489 22.483 48.5963 22.2207 48.2847 22.2207C47.5332 22.2207 46.893 21.7235 46.6572 21.0323H52.3174C53.2465 21.0323 54.0022 21.8172 54.0022 22.782V26.8969H25.4806C25.169 26.8969 24.9163 27.1592 24.9163 27.4828C24.9163 27.8064 25.169 28.0688 25.4806 28.0688H54.0022V45.5313C54.0022 45.8549 54.2549 46.1173 54.5665 46.1173ZM24.0878 19.8603C24.3236 19.1691 24.9638 18.6719 25.7152 18.6719C26.4666 18.6719 27.1068 19.1691 27.3426 19.8603H24.0878ZM31.6109 19.8603C31.8467 19.1691 32.4869 18.6719 33.2384 18.6719C33.9898 18.6719 34.63 19.1691 34.8658 19.8603H31.6109ZM39.1341 19.8603C39.3699 19.1691 40.0101 18.6719 40.7615 18.6719C41.5129 18.6719 42.1531 19.1691 42.3889 19.8603H39.1341ZM46.6572 19.8603C46.893 19.1691 47.5332 18.6719 48.2847 18.6719C49.0361 18.6719 49.6763 19.1691 49.9121 19.8603H46.6572ZM50.7297 48.5156H47.4947C46.9347 48.5156 46.4791 48.9888 46.4791 49.5703V52.9297C46.4791 53.5112 46.9347 53.9844 47.4947 53.9844H50.7297C51.2897 53.9844 51.7453 53.5112 51.7453 52.9297V49.5703C51.7453 48.9888 51.2897 48.5156 50.7297 48.5156ZM50.6168 52.8125H47.6076V49.6875H50.6168V52.8125ZM51.7453 31.4672C51.7453 30.8856 51.2897 30.4125 50.7297 30.4125H47.4947C46.9347 30.4125 46.4791 30.8856 46.4791 31.4672V34.8266C46.4791 35.4081 46.9347 35.8813 47.4947 35.8813H50.7297C51.2897 35.8813 51.7453 35.4081 51.7453 34.8266V31.4672ZM50.6168 34.7094H47.6076V31.5844H50.6168V34.7094ZM27.5208 31.4672C27.5208 30.8856 27.0652 30.4125 26.5051 30.4125H23.2702C22.7102 30.4125 22.2546 30.8856 22.2546 31.4672V34.8266C22.2546 35.4081 22.7102 35.8813 23.2702 35.8813H26.5051C27.0652 35.8813 27.5208 35.4081 27.5208 34.8266V31.4672ZM26.3923 34.7094H23.383V31.5844H26.3923V34.7094ZM27.5208 41.1047C27.5208 40.5231 27.0652 40.05 26.5051 40.05H23.2702C22.7102 40.05 22.2546 40.5231 22.2546 41.1047V44.4641C22.2546 45.0456 22.7102 45.5188 23.2702 45.5188H26.5051C27.0652 45.5188 27.5208 45.0456 27.5208 44.4641V41.1047ZM26.3923 44.3469H23.383V41.2219H26.3923V44.3469ZM26.5051 48.5156H23.2702C22.7102 48.5156 22.2546 48.9888 22.2546 49.5703V52.9297C22.2546 53.5112 22.7102 53.9844 23.2702 53.9844H26.5051C27.0652 53.9844 27.5208 53.5112 27.5208 52.9297V49.5703C27.5208 48.9888 27.0652 48.5156 26.5051 48.5156ZM26.3923 52.8125H23.383V49.6875H26.3923V52.8125ZM41.4581 40.2897H38.8379V37.5688C38.8379 36.9539 38.3562 36.4538 37.7642 36.4538H36.2357C35.6437 36.4538 35.162 36.954 35.162 37.5688V40.2897H32.5419C31.9498 40.2897 31.4682 40.7899 31.4682 41.4047V42.992C31.4682 43.6069 31.9499 44.107 32.5419 44.107H35.162V46.828C35.162 47.4428 35.6437 47.943 36.2357 47.943H37.7642C38.3563 47.943 38.8379 47.4428 38.8379 46.828V44.107H41.4581C42.0501 44.107 42.5318 43.6068 42.5318 42.992V41.4047C42.5319 40.7899 42.0501 40.2897 41.4581 40.2897ZM41.4034 42.9352H38.5285C38.0769 42.9352 37.7095 43.3167 37.7095 43.7857V46.7712H36.2905V43.7857C36.2905 43.3167 35.9231 42.9352 35.4715 42.9352H32.5966V41.4616H35.4715C35.9231 41.4616 36.2905 41.0801 36.2905 40.6111V37.6256H37.7095V40.6111C37.7095 41.0801 38.0769 41.4616 38.5285 41.4616H41.4034V42.9352ZM45.0794 42.1984C45.0794 39.6816 44.0065 37.4204 42.311 35.8813H42.6551C43.2151 35.8813 43.6707 35.4081 43.6707 34.8266V31.4672C43.6707 30.8856 43.2151 30.4125 42.6551 30.4125H39.4201C38.8601 30.4125 38.4045 30.8856 38.4045 31.4672V33.9355C37.9482 33.852 37.4789 33.8083 36.9999 33.8083C36.5209 33.8083 36.0517 33.852 35.5954 33.9355V31.4672C35.5954 30.8856 35.1398 30.4125 34.5797 30.4125H31.3448C30.7848 30.4125 30.3292 30.8856 30.3292 31.4672V34.8266C30.3292 35.4081 30.7848 35.8813 31.3448 35.8813H31.6888C29.9933 37.4204 28.9204 39.6816 28.9204 42.1984C28.9204 44.7152 29.9933 46.9765 31.6888 48.5156H31.3448C30.7848 48.5156 30.3292 48.9888 30.3292 49.5703V52.9297C30.3292 53.5112 30.7848 53.9844 31.3448 53.9844H34.5797C35.1398 53.9844 35.5954 53.5112 35.5954 52.9297V50.4614C36.0516 50.5448 36.5209 50.5886 36.9999 50.5886C37.4789 50.5886 37.9481 50.5448 38.4045 50.4614V52.9297C38.4045 53.5112 38.8601 53.9844 39.4201 53.9844H42.6551C43.2151 53.9844 43.6707 53.5112 43.6707 52.9297V49.5703C43.6707 48.9888 43.2151 48.5156 42.6551 48.5156H42.311C44.0065 46.9765 45.0794 44.7152 45.0794 42.1984ZM39.533 31.5844H42.5422V34.7094H40.6399C40.2851 34.5227 39.9153 34.3625 39.533 34.2311V31.5844ZM31.4576 34.7094V31.5844H34.4669V34.2311C34.0846 34.3625 33.7148 34.5227 33.36 34.7094H31.4576ZM34.4669 52.8125H31.4576V49.6875H33.36C33.7148 49.8742 34.0846 50.0344 34.4669 50.1658V52.8125ZM42.5422 49.6875V52.8125H39.533V50.1658C39.9153 50.0344 40.2851 49.8742 40.6399 49.6875H42.5422ZM36.9999 49.4167C33.232 49.4167 30.0489 46.2416 30.0489 42.1984C30.0489 38.1559 33.2353 34.9801 36.9999 34.9801C40.7532 34.9801 43.9509 38.042 43.9509 42.1984C43.9509 46.257 40.7686 49.4167 36.9999 49.4167Z" fill="white"/>
</g>
<defs>
<clipPath id="clip0_6_1170">
<rect width="38.5185" height="40" fill="white" transform="translate(17.7407 17.5)"/>
</clipPath>
</defs>
</svg>
