<svg width="74" height="75" viewBox="0 0 74 75" fill="none" xmlns="http://www.w3.org/2000/svg">
<g clip-path="url(#clip0_6_1140)">
<path d="M40.7255 46.2561C39.7659 45.2966 38.2045 45.2966 37.2449 46.2561L34.9838 48.5173C34.9388 48.5623 34.8763 48.5827 34.8166 48.5728C31.848 48.0613 29.8715 46.4518 28.9577 45.5378C26.8384 43.4186 26.1473 40.9599 25.924 39.6829C25.9131 39.6206 25.9335 39.5566 25.9785 39.5117L28.2395 37.2507C29.1949 36.3037 29.1832 34.7047 28.2395 33.7701L24.9798 30.5104C24.0203 29.5509 22.4589 29.5508 21.4993 30.5104L18.9516 33.0581C17.1506 34.8591 16.5295 37.5684 17.3692 39.9605C18.7811 43.9825 21.0071 47.5319 23.9854 50.5103C25.7402 52.2651 27.7262 53.779 29.8881 55.01C30.1693 55.1702 30.5271 55.072 30.6873 54.7907C30.8474 54.5094 30.7493 54.1516 30.468 53.9914C28.3972 52.8123 26.4949 51.3623 24.8142 49.6815C21.9611 46.8284 19.8283 43.4272 18.4751 39.5721C17.7837 37.6026 18.296 35.371 19.7803 33.8867L22.328 31.339C22.8218 30.8391 23.656 30.8394 24.1512 31.339L27.4108 34.5987C27.9134 35.1014 27.9134 35.9192 27.4108 36.4218L25.1498 38.6828C24.8351 38.9975 24.693 39.4467 24.7696 39.8848C25.0167 41.298 25.7819 44.0194 28.1291 46.3666C29.1412 47.3787 31.3301 49.1613 34.6179 49.7277C35.0521 49.8022 35.4989 49.6598 35.8127 49.346L38.0738 47.0849C38.5765 46.5823 39.3943 46.582 39.8969 47.0849L43.1566 50.3446C43.6524 50.8355 43.6555 51.6743 43.1566 52.1677L40.6089 54.7154C39.1246 56.1997 36.8929 56.7119 34.9235 56.0207C34.2253 55.7756 33.5282 55.4985 32.8514 55.197C32.5559 55.0652 32.2094 55.1982 32.0777 55.4937C31.946 55.7894 32.0789 56.1358 32.3745 56.2675C33.0803 56.5819 33.8073 56.871 34.5353 57.1265C36.9158 57.9623 39.6323 57.3498 41.4376 55.5442L43.9852 52.9964C44.9407 52.0495 44.9287 50.4501 43.9852 49.5158L40.7255 46.2561ZM53.8423 20.4249C51.2148 17.8761 47.3751 16.9025 43.8216 17.8842C43.5096 17.9704 43.3266 18.2931 43.4128 18.6051C43.4989 18.917 43.8216 19.0999 44.1337 19.0138C47.2884 18.1425 50.6959 19.0055 53.0263 21.2661C54.814 23.0002 55.8089 25.3254 55.8278 27.8133C55.8467 30.3019 54.8882 32.6413 53.1287 34.4009C51.6997 35.8298 49.8897 36.7324 47.8942 37.0109C45.9628 37.2807 43.9586 36.9235 42.2509 36.0056C41.993 35.8671 41.6877 35.8402 41.413 35.9321L37.1307 37.3649L38.5637 33.0824C38.6555 32.8079 38.6287 32.5027 38.4902 32.245C37.5657 30.5251 37.2106 28.5076 37.49 26.5639C37.7789 24.5545 38.6997 22.7374 40.1528 21.3092C40.6493 20.8213 41.2002 20.3908 41.7902 20.0297C42.0662 19.8607 42.1529 19.5 41.9839 19.2239C41.815 18.948 41.4543 18.8612 41.1782 19.0302C40.5125 19.4376 39.8912 19.9233 39.3313 20.4734C37.6936 22.0831 36.6557 24.1315 36.3299 26.3972C36.0172 28.5717 36.4101 30.8291 37.436 32.7591L35.9447 37.216C35.8169 37.5978 35.9144 38.0118 36.1991 38.2965C36.4854 38.5828 36.9024 38.6774 37.2796 38.5509L41.7365 37.0597C43.6532 38.0786 45.8954 38.4731 48.0561 38.1718C50.3061 37.8576 52.3468 36.8402 53.9574 35.2297C55.9406 33.2464 57.021 30.6094 56.9997 27.8045C56.9784 25.0001 55.8571 22.3793 53.8423 20.4249ZM47.4077 22.1389H45.8203C45.2054 22.1389 44.7052 22.6392 44.7052 23.2541V25.9753H41.9839C41.369 25.9753 40.8688 26.4756 40.8688 27.0905V28.6779C40.8688 29.2928 41.369 29.793 41.9839 29.793H44.7051V32.5142C44.7051 33.1291 45.2054 33.6293 45.8202 33.6293H47.4076C48.0225 33.6293 48.5228 33.1291 48.5228 32.5142V29.793H51.244C51.859 29.793 52.3592 29.2927 52.3592 28.6779V27.0905C52.3592 26.4756 51.859 25.9753 51.244 25.9753H48.5228V23.2541C48.5229 22.6392 48.0226 22.1389 47.4077 22.1389ZM51.1872 27.1473V28.6211H48.2015C47.7324 28.6211 47.3509 29.0026 47.3509 29.4716V32.4574H45.8771V29.4716C45.8771 29.0026 45.4956 28.6211 45.0265 28.6211H42.0408V27.1473H45.0265C45.4956 27.1473 45.8771 26.7658 45.8771 26.2968V23.3109H47.3509V26.2968C47.3509 26.7658 47.7324 27.1473 48.2015 27.1473H51.1872Z" fill="white"/>
</g>
<defs>
<clipPath id="clip0_6_1140">
<rect width="40" height="40" fill="white" transform="translate(17 17.5)"/>
</clipPath>
</defs>
</svg>
