<svg width="74" height="75" viewBox="0 0 74 75" fill="none" xmlns="http://www.w3.org/2000/svg">
<g clip-path="url(#clip0_6_1177)">
<path d="M37.0001 52.8125C36.6641 52.8125 36.3916 53.0748 36.3916 53.3984C36.3916 53.722 36.6641 53.9844 37.0001 53.9844C37.3361 53.9844 37.6086 53.722 37.6086 53.3984C37.6086 53.0748 37.3361 52.8125 37.0001 52.8125ZM37.0001 49.2969C36.6641 49.2969 36.3916 49.5592 36.3916 49.8828C36.3916 50.2064 36.6641 50.4688 37.0001 50.4688C37.3361 50.4688 37.6086 50.2064 37.6086 49.8828C37.6086 49.5592 37.3361 49.2969 37.0001 49.2969ZM37.0001 56.3281C36.6641 56.3281 36.3916 56.5905 36.3916 56.9141C36.3916 57.2377 36.6641 57.5 37.0001 57.5C37.3361 57.5 37.6086 57.2377 37.6086 56.9141C37.6086 56.5905 37.3361 56.3281 37.0001 56.3281ZM48.9539 44.3072L46.2455 43.4295C47.7427 42.4026 48.6812 40.7171 48.6812 38.8977C48.6851 38.8902 48.6812 28.7485 48.6812 28.7485C48.6812 25.7449 47.4662 22.9203 45.2602 20.7952C43.0537 18.6702 40.1202 17.5 37.0001 17.5C34.996 17.5 33.0188 17.9971 31.2821 18.9377C30.9892 19.0963 30.8853 19.4535 31.05 19.7355C31.2146 20.0177 31.5857 20.1176 31.8785 19.9591C33.4335 19.117 35.2045 18.6719 37.0001 18.6719C39.7951 18.6719 42.423 19.7202 44.3996 21.6236C46.3759 23.5274 47.4642 26.0577 47.4642 28.7484V28.7511C47.1108 28.5558 46.7019 28.4434 46.2661 28.4434H45.6814C44.0534 28.1742 42.4567 27.7299 40.9349 27.1217C39.7767 26.6588 38.6512 26.0964 37.5897 25.4502C37.2179 25.2238 36.7329 25.2448 36.3829 25.5024C35.5548 26.1116 34.6606 26.6384 33.7249 27.068C32.0438 27.8401 30.2348 28.3027 28.348 28.4434H27.7342C27.2983 28.4434 26.8895 28.5558 26.5361 28.7511V28.7484C26.5361 26.022 27.6488 23.4684 29.6694 21.5579C29.9093 21.3312 29.9128 20.9602 29.6773 20.7293C29.442 20.4984 29.0567 20.4949 28.8169 20.7217C26.5613 22.8543 25.3191 25.705 25.3191 28.7484V38.8977C25.3191 40.717 26.2575 42.4026 27.7548 43.4295L25.0463 44.3072C22.8152 45.0303 21.3162 47.039 21.3162 49.3055V56.9141C21.3162 57.2377 21.5886 57.5 21.9246 57.5C22.2607 57.5 22.5331 57.2377 22.5331 56.9141V49.3055C22.5331 47.5427 23.6991 45.9803 25.4345 45.4179L26.4919 45.0752C26.3354 45.6945 26.2662 46.3329 26.2906 46.9648C26.3136 47.5648 26.4187 48.1546 26.6007 48.7266C25.4187 49.0683 24.5549 50.1252 24.5549 51.3732V53.7578C24.5549 54.3477 25.0532 54.8276 25.6658 54.8276H26.3477C26.6837 54.8276 26.9561 54.5652 26.9561 54.2416C26.9561 53.918 26.6837 53.6557 26.3477 53.6557H25.7717V51.3731C25.7717 50.496 26.5124 49.7824 27.4231 49.7819C27.4236 49.7819 27.424 49.782 27.4245 49.782C27.425 49.782 27.4255 49.7819 27.426 49.7819C28.3364 49.7828 29.0768 50.4963 29.0768 51.3731V53.6557H28.5009C28.1649 53.6557 27.8925 53.918 27.8925 54.2416C27.8925 54.5652 28.1649 54.8276 28.5009 54.8276H29.1828C29.7954 54.8276 30.2937 54.3477 30.2937 53.7578V51.3732C30.2937 49.9898 29.2325 48.8407 27.8528 48.6409C27.6463 48.0863 27.5292 47.5097 27.5065 46.9215C27.4766 46.1415 27.618 45.3491 27.9157 44.6138L32.0664 43.2687L36.4216 47.4625C36.7773 47.8084 37.384 47.81 37.7411 47.4625L38.943 46.3051C39.1806 46.0762 39.1806 45.7052 38.943 45.4765C38.7054 45.2477 38.3201 45.2477 38.0825 45.4765L37.0812 46.4405L33.2242 42.7263C33.7961 42.2476 34.0567 41.5178 33.9983 40.7815C34.9302 41.0945 35.929 41.2662 36.9676 41.2698C38.0143 41.2733 39.0393 41.1088 40.0019 40.7911C39.9025 41.5384 40.262 42.3516 40.8658 42.7961L40.0862 43.5468C39.8486 43.7756 39.8486 44.1466 40.0862 44.3754C40.3238 44.6042 40.7091 44.6042 40.9467 44.3754L42.0551 43.308L45.7606 44.5088C46.0408 45.195 46.1854 45.9373 46.1782 46.6718C46.1717 47.3377 46.0396 48.0102 45.796 48.6372C44.2142 48.8366 42.9886 50.142 42.9886 51.7187C42.9886 53.4329 44.4369 54.8275 46.217 54.8275C47.9972 54.8275 49.4454 53.433 49.4454 51.7188C49.4454 50.2837 48.4301 49.0731 47.0552 48.7168C47.2718 48.0593 47.3884 47.3682 47.3952 46.683C47.4009 46.1093 47.3296 45.5316 47.1872 44.971L48.5658 45.4177C50.3012 45.9802 51.4672 47.5426 51.4672 49.3054V56.914C51.4672 57.2376 51.7396 57.4999 52.0756 57.4999C52.4117 57.4999 52.6841 57.2376 52.6841 56.914V49.3054C52.6841 47.039 51.1851 45.0304 48.9539 44.3072ZM46.2349 29.6153H46.2661C46.9253 29.6153 47.4616 30.1306 47.4642 30.7648V30.7738C47.4613 31.4164 46.9052 31.9416 46.2349 31.9232V29.6153ZM26.536 30.7648C26.5379 30.1218 27.0957 29.5973 27.7653 29.6154V31.9234C27.095 31.9412 26.5388 31.418 26.536 30.7739V30.7648ZM32.7813 41.0992C32.7813 41.5191 32.504 41.8909 32.0908 42.0244L29.2992 42.9291C27.6382 42.2444 26.5361 40.6496 26.5361 38.8977V32.7877C26.9179 33.0002 27.3398 33.1025 27.8033 33.0953C28.0922 36.2226 30.0396 38.8975 32.7813 40.2749V41.0992ZM36.9717 40.0979C32.5663 40.0832 28.9823 36.5792 28.9823 32.287V29.5634C30.8242 29.3686 32.5933 28.8859 34.2487 28.1258C35.2272 27.6765 36.1636 27.129 37.0338 26.4978C38.1258 27.1555 39.2808 27.7295 40.4684 28.2041C41.9309 28.7887 43.4591 29.2302 45.0178 29.5188V32.3771C45.0178 34.4445 44.1803 36.3866 42.6596 37.846C41.1131 39.3302 39.1812 40.1053 36.9717 40.0979ZM44.7011 42.929L41.9089 42.0241C41.4961 41.8909 41.2188 41.5191 41.2188 41.0992V40.292C42.0566 39.8768 42.832 39.3351 43.5187 38.6761C45.093 37.1654 46.0311 35.2053 46.2049 33.0952C46.6523 33.1013 47.0977 32.9926 47.4643 32.7875V38.8976C47.4642 40.6495 46.3621 42.2444 44.7011 42.929ZM48.2285 51.7188C48.2285 52.7868 47.3261 53.6557 46.2171 53.6557C45.108 53.6557 44.2056 52.7868 44.2056 51.7188C44.2056 50.6515 45.1067 49.7831 46.2147 49.7819C46.2154 49.7819 46.216 49.782 46.2167 49.782C46.2172 49.782 46.2178 49.7819 46.2184 49.7819C47.3269 49.7825 48.2285 50.6511 48.2285 51.7188ZM40.9346 30.0933C40.5986 30.0933 40.3262 30.3556 40.3262 30.6792V32.0196C40.3262 32.3432 40.5986 32.6055 40.9346 32.6055C41.2707 32.6055 41.5431 32.3432 41.5431 32.0196V30.6792C41.5431 30.3556 41.2707 30.0933 40.9346 30.0933ZM37.864 35.6603C37.7271 35.754 37.4397 35.9131 37.0536 35.9264C36.6181 35.941 36.2909 35.7659 36.1356 35.6598C35.8614 35.4727 35.4816 35.5352 35.2873 35.7992C35.093 36.0632 35.1578 36.429 35.432 36.6161C35.7013 36.7998 36.2547 37.0992 37.0006 37.0992C37.6541 37.0992 38.2609 36.8263 38.5687 36.6157C38.8427 36.4283 38.907 36.0625 38.7124 35.7987C38.5179 35.5348 38.138 35.4729 37.864 35.6603ZM33.0655 30.0933C32.7295 30.0933 32.4571 30.3556 32.4571 30.6792V32.0196C32.4571 32.3432 32.7295 32.6055 33.0655 32.6055C33.4016 32.6055 33.674 32.3432 33.674 32.0196V30.6792C33.674 30.3556 33.4017 30.0933 33.0655 30.0933Z" fill="white"/>
</g>
<defs>
<clipPath id="clip0_6_1177">
<rect width="41.5385" height="40" fill="white" transform="translate(16.2308 17.5)"/>
</clipPath>
</defs>
</svg>
