<?xml version="1.0" encoding="utf-8"?>
<!-- Generator: Adobe Illustrator 23.0.3, SVG Export Plug-In . SVG Version: 6.00 Build 0)  -->
<svg version="1.1" id="Layer_1" xmlns="http://www.w3.org/2000/svg" xmlns:xlink="http://www.w3.org/1999/xlink" x="0px" y="0px"
	 viewBox="0 0 30 30" style="enable-background:new 0 0 30 30;" xml:space="preserve">
<style type="text/css">
	.st0{fill:#FFFFFF;}
</style>
<g>
	<path class="st0" d="M13.5,14.2c-0.9,0-1.7,0.3-2.4,0.8c-0.3-1.3-1.5-2.4-3-2.4c-1.7,0-3,1.4-3,3c0,0.6,0.1,1.1,0.4,1.5h-2v-6.1H2
		v15.2h1.5v-3h23v3H28V14.2H13.5z M13.5,15.8h0.8v1.5h-2.9C11.6,16.4,12.5,15.8,13.5,15.8L13.5,15.8z M6.6,15.8
		c0-0.8,0.7-1.5,1.5-1.5c0.8,0,1.5,0.7,1.5,1.5c0,0.8-0.7,1.5-1.5,1.5C7.3,17.3,6.6,16.6,6.6,15.8L6.6,15.8z M3.5,18.8h10.7v3H3.5
		V18.8z M26.5,21.9H15.8v-6.1h10.7V21.9z M26.5,21.9"/>
	<path class="st0" d="M15.8,11.2h1.5v-3h3V6.6h-3v-3h-1.5v3h-3v1.5h3V11.2z M15.8,11.2"/>
</g>
</svg>
