<?xml version="1.0" encoding="utf-8"?>
<svg width="214px" height="59" viewBox="0 0 214 59" fill="none" xmlns="http://www.w3.org/2000/svg">
  <path fill-rule="evenodd" clip-rule="evenodd" d="M 2.5 29.5 C 2.5 14.684 15.873 2.5 32.595 2.5 L 181.405 2.5 C 198.127 2.5 211.5 14.684 211.5 29.5 C 211.5 44.316 198.127 56.5 181.405 56.5 L 32.595 56.5 C 15.873 56.5 2.5 44.316 2.5 29.5 Z M 32.595 0.5 C 14.971 0.5 0.5 13.388 0.5 29.5 C 0.5 45.612 14.971 58.5 32.595 58.5 L 181.405 58.5 C 199.03 58.5 213.5 45.612 213.5 29.5 C 213.5 13.388 199.03 0.5 181.405 0.5 L 32.595 0.5 Z M 32.595 6.5 L 181.405 6.5 C 195.512 6.5 206.947 16.798 206.947 29.5 C 206.947 42.203 195.512 52.5 181.405 52.5 L 32.595 52.5 C 18.488 52.5 7.053 42.203 7.053 29.5 C 7.053 16.798 18.488 6.5 32.595 6.5 Z" fill="#2BAFE6"/>
  <path d="M 32.391 35.201 C 30.823 35.201 29.46 34.673 28.303 33.619 L 28.961 32.849 C 29.95 33.782 31.098 34.249 32.405 34.249 C 33.03 34.249 33.567 34.076 34.015 33.731 C 34.463 33.376 34.687 32.919 34.687 32.359 C 34.687 31.752 34.444 31.299 33.959 31.001 C 33.474 30.702 32.834 30.553 32.041 30.553 L 30.963 30.553 L 30.963 29.643 L 32.041 29.643 C 32.75 29.643 33.324 29.479 33.763 29.153 C 34.211 28.817 34.435 28.364 34.435 27.795 C 34.435 27.291 34.225 26.875 33.805 26.549 C 33.394 26.213 32.867 26.045 32.223 26.045 C 31.122 26.045 30.16 26.413 29.339 27.151 L 28.695 26.381 C 29.208 25.942 29.74 25.615 30.291 25.401 C 30.851 25.186 31.504 25.079 32.251 25.079 C 33.222 25.079 34.015 25.326 34.631 25.821 C 35.247 26.315 35.555 26.941 35.555 27.697 C 35.555 28.807 34.958 29.577 33.763 30.007 C 34.388 30.193 34.888 30.487 35.261 30.889 C 35.634 31.29 35.821 31.799 35.821 32.415 C 35.821 33.208 35.499 33.871 34.855 34.403 C 34.22 34.935 33.399 35.201 32.391 35.201 Z M 40.457 35.187 C 39.72 35.187 39.085 34.986 38.553 34.585 C 38.021 34.183 37.755 33.623 37.755 32.905 C 37.755 32.149 38.035 31.565 38.595 31.155 C 39.155 30.744 39.907 30.539 40.849 30.539 C 41.596 30.539 42.333 30.641 43.061 30.847 L 43.061 30.623 C 43.061 29.988 42.875 29.503 42.501 29.167 C 42.128 28.831 41.601 28.663 40.919 28.663 C 40.21 28.663 39.477 28.835 38.721 29.181 L 38.399 28.299 C 39.295 27.888 40.173 27.683 41.031 27.683 C 42.058 27.683 42.837 27.949 43.369 28.481 C 43.873 28.985 44.125 29.694 44.125 30.609 L 44.125 35.033 L 43.061 35.033 L 43.061 33.955 C 42.417 34.776 41.549 35.187 40.457 35.187 Z M 40.667 34.319 C 41.339 34.319 41.909 34.137 42.375 33.773 C 42.842 33.409 43.075 32.942 43.075 32.373 L 43.075 31.701 C 42.366 31.495 41.661 31.393 40.961 31.393 C 40.299 31.393 39.781 31.528 39.407 31.799 C 39.034 32.06 38.847 32.419 38.847 32.877 C 38.847 33.315 39.02 33.665 39.365 33.927 C 39.72 34.188 40.154 34.319 40.667 34.319 Z M 46.849 35.033 L 46.849 27.795 L 53.121 27.795 L 53.121 35.033 L 52.043 35.033 L 52.043 28.747 L 47.927 28.747 L 47.927 35.033 L 46.849 35.033 Z M 55.97 35.033 L 55.97 27.795 L 57.048 27.795 L 57.048 33.521 L 61.346 27.795 L 62.396 27.795 L 62.396 35.033 L 61.318 35.033 L 61.318 29.307 L 57.006 35.033 L 55.97 35.033 Z M 68.504 35.201 C 67.459 35.201 66.577 34.832 65.858 34.095 C 65.149 33.348 64.794 32.457 64.794 31.421 C 64.794 30.385 65.149 29.498 65.858 28.761 C 66.577 28.014 67.459 27.641 68.504 27.641 C 69.624 27.641 70.59 28.07 71.402 28.929 L 70.716 29.657 C 70.044 28.947 69.302 28.593 68.49 28.593 C 67.762 28.593 67.146 28.868 66.642 29.419 C 66.148 29.96 65.9 30.627 65.9 31.421 C 65.9 32.205 66.152 32.872 66.656 33.423 C 67.17 33.964 67.804 34.235 68.56 34.235 C 69.335 34.235 70.063 33.871 70.744 33.143 L 71.458 33.801 C 70.618 34.734 69.634 35.201 68.504 35.201 Z M 75.836 35.187 C 75.099 35.187 74.464 34.986 73.932 34.585 C 73.4 34.183 73.134 33.623 73.134 32.905 C 73.134 32.149 73.414 31.565 73.974 31.155 C 74.534 30.744 75.286 30.539 76.228 30.539 C 76.975 30.539 77.712 30.641 78.44 30.847 L 78.44 30.623 C 78.44 29.988 78.254 29.503 77.88 29.167 C 77.507 28.831 76.98 28.663 76.298 28.663 C 75.589 28.663 74.856 28.835 74.1 29.181 L 73.778 28.299 C 74.674 27.888 75.552 27.683 76.41 27.683 C 77.437 27.683 78.216 27.949 78.748 28.481 C 79.252 28.985 79.504 29.694 79.504 30.609 L 79.504 35.033 L 78.44 35.033 L 78.44 33.955 C 77.796 34.776 76.928 35.187 75.836 35.187 Z M 76.046 34.319 C 76.718 34.319 77.288 34.137 77.754 33.773 C 78.221 33.409 78.454 32.942 78.454 32.373 L 78.454 31.701 C 77.745 31.495 77.04 31.393 76.34 31.393 C 75.678 31.393 75.16 31.528 74.786 31.799 C 74.413 32.06 74.226 32.419 74.226 32.877 C 74.226 33.315 74.399 33.665 74.744 33.927 C 75.099 34.188 75.533 34.319 76.046 34.319 Z M 83.978 35.033 L 83.978 28.747 L 81.388 28.747 L 81.388 27.795 L 87.66 27.795 L 87.66 28.747 L 85.07 28.747 L 85.07 35.033 L 83.978 35.033 Z M 89.668 35.033 L 89.668 27.795 L 90.746 27.795 L 90.746 30.511 L 92.678 30.511 C 93.518 30.511 94.204 30.693 94.736 31.057 C 95.268 31.411 95.534 31.953 95.534 32.681 C 95.534 33.399 95.287 33.973 94.792 34.403 C 94.297 34.823 93.635 35.033 92.804 35.033 L 89.668 35.033 Z M 90.746 34.081 L 92.706 34.081 C 93.257 34.081 93.681 33.964 93.98 33.731 C 94.288 33.497 94.442 33.157 94.442 32.709 C 94.442 32.298 94.283 31.985 93.966 31.771 C 93.658 31.547 93.224 31.435 92.664 31.435 L 90.746 31.435 L 90.746 34.081 Z M 100.903 35.201 C 99.858 35.201 98.976 34.832 98.257 34.095 C 97.548 33.348 97.193 32.457 97.193 31.421 C 97.193 30.385 97.548 29.498 98.257 28.761 C 98.976 28.014 99.858 27.641 100.903 27.641 C 102.023 27.641 102.989 28.07 103.801 28.929 L 103.115 29.657 C 102.443 28.947 101.701 28.593 100.889 28.593 C 100.161 28.593 99.545 28.868 99.041 29.419 C 98.546 29.96 98.299 30.627 98.299 31.421 C 98.299 32.205 98.551 32.872 99.055 33.423 C 99.568 33.964 100.203 34.235 100.959 34.235 C 101.734 34.235 102.462 33.871 103.143 33.143 L 103.857 33.801 C 103.017 34.734 102.032 35.201 100.903 35.201 Z M 105.435 35.033 L 107.647 32.233 C 107.078 32.102 106.611 31.845 106.247 31.463 C 105.892 31.08 105.715 30.609 105.715 30.049 C 105.715 29.377 105.958 28.835 106.443 28.425 C 106.928 28.005 107.596 27.795 108.445 27.795 L 111.847 27.795 L 111.847 35.033 L 110.769 35.033 L 110.769 32.401 L 108.767 32.401 C 108.683 32.513 108.394 32.895 107.899 33.549 C 107.404 34.202 107.026 34.697 106.765 35.033 L 105.435 35.033 Z M 108.529 31.491 L 110.769 31.491 L 110.769 28.747 L 108.501 28.747 C 107.969 28.747 107.549 28.868 107.241 29.111 C 106.942 29.344 106.793 29.671 106.793 30.091 C 106.793 30.52 106.952 30.861 107.269 31.113 C 107.596 31.365 108.016 31.491 108.529 31.491 Z M 119.332 35.033 L 119.332 27.795 L 120.41 27.795 L 120.41 30.917 L 124.582 30.917 L 124.582 27.795 L 125.66 27.795 L 125.66 35.033 L 124.582 35.033 L 124.582 31.869 L 120.41 31.869 L 120.41 35.033 L 119.332 35.033 Z M 130.664 35.187 C 129.927 35.187 129.292 34.986 128.76 34.585 C 128.228 34.183 127.962 33.623 127.962 32.905 C 127.962 32.149 128.242 31.565 128.802 31.155 C 129.362 30.744 130.114 30.539 131.056 30.539 C 131.803 30.539 132.54 30.641 133.268 30.847 L 133.268 30.623 C 133.268 29.988 133.082 29.503 132.708 29.167 C 132.335 28.831 131.808 28.663 131.126 28.663 C 130.417 28.663 129.684 28.835 128.928 29.181 L 128.606 28.299 C 129.502 27.888 130.38 27.683 131.238 27.683 C 132.265 27.683 133.044 27.949 133.576 28.481 C 134.08 28.985 134.332 29.694 134.332 30.609 L 134.332 35.033 L 133.268 35.033 L 133.268 33.955 C 132.624 34.776 131.756 35.187 130.664 35.187 Z M 130.874 34.319 C 131.546 34.319 132.116 34.137 132.582 33.773 C 133.049 33.409 133.282 32.942 133.282 32.373 L 133.282 31.701 C 132.573 31.495 131.868 31.393 131.168 31.393 C 130.506 31.393 129.988 31.528 129.614 31.799 C 129.241 32.06 129.054 32.419 129.054 32.877 C 129.054 33.315 129.227 33.665 129.572 33.927 C 129.927 34.188 130.361 34.319 130.874 34.319 Z M 141.693 35.033 L 141.693 27.795 L 147.965 27.795 L 147.965 35.033 L 146.887 35.033 L 146.887 28.747 L 142.771 28.747 L 142.771 35.033 L 141.693 35.033 Z M 150.815 37.273 L 150.815 27.795 L 151.893 27.795 L 151.893 29.251 C 152.621 28.177 153.545 27.641 154.665 27.641 C 155.589 27.641 156.396 27.986 157.087 28.677 C 157.777 29.358 158.123 30.273 158.123 31.421 C 158.123 32.55 157.777 33.46 157.087 34.151 C 156.396 34.841 155.589 35.187 154.665 35.187 C 153.526 35.187 152.602 34.673 151.893 33.647 L 151.893 37.273 L 150.815 37.273 Z M 154.469 34.221 C 155.197 34.221 155.803 33.969 156.289 33.465 C 156.774 32.951 157.017 32.265 157.017 31.407 C 157.017 30.576 156.769 29.904 156.275 29.391 C 155.78 28.868 155.178 28.607 154.469 28.607 C 153.769 28.607 153.157 28.873 152.635 29.405 C 152.112 29.937 151.851 30.609 151.851 31.421 C 151.851 32.233 152.112 32.905 152.635 33.437 C 153.157 33.959 153.769 34.221 154.469 34.221 Z M 160.552 35.033 L 160.552 27.795 L 161.63 27.795 L 161.63 33.521 L 165.928 27.795 L 166.978 27.795 L 166.978 35.033 L 165.9 35.033 L 165.9 29.307 L 161.588 35.033 L 160.552 35.033 Z M 172.988 35.201 C 171.97 35.201 171.112 34.851 170.412 34.151 C 169.721 33.441 169.376 32.531 169.376 31.421 C 169.376 30.366 169.707 29.475 170.37 28.747 C 171.032 28.009 171.858 27.641 172.848 27.641 C 173.884 27.641 174.705 28.005 175.312 28.733 C 175.918 29.461 176.222 30.375 176.222 31.477 C 176.222 31.617 176.217 31.743 176.208 31.855 L 170.468 31.855 C 170.542 32.592 170.818 33.18 171.294 33.619 C 171.779 34.048 172.353 34.263 173.016 34.263 C 173.884 34.263 174.644 33.922 175.298 33.241 L 175.97 33.843 C 175.158 34.748 174.164 35.201 172.988 35.201 Z M 170.468 30.987 L 175.13 30.987 C 175.064 30.287 174.831 29.708 174.43 29.251 C 174.038 28.784 173.501 28.551 172.82 28.551 C 172.204 28.551 171.676 28.779 171.238 29.237 C 170.799 29.694 170.542 30.277 170.468 30.987 Z M 170.902 26.703 L 170.902 25.373 L 172.162 25.373 L 172.162 26.703 L 170.902 26.703 Z M 173.366 26.703 L 173.366 25.373 L 174.626 25.373 L 174.626 26.703 L 173.366 26.703 Z M 178.549 35.033 L 178.549 27.795 L 179.571 27.795 L 182.273 31.603 L 184.975 27.795 L 186.011 27.795 L 186.011 35.033 L 184.919 35.033 L 184.919 29.517 L 182.245 33.185 L 179.599 29.517 L 179.599 35.033 L 178.549 35.033 Z" fill="#FDFDFB"/>
</svg>