<?xml version="1.0" encoding="utf-8"?>
<!-- Generator: Adobe Illustrator 23.0.3, SVG Export Plug-In . SVG Version: 6.00 Build 0)  -->
<svg version="1.1" id="Layer_1" xmlns="http://www.w3.org/2000/svg" xmlns:xlink="http://www.w3.org/1999/xlink" x="0px" y="0px"
	 viewBox="0 0 20 20" style="enable-background:new 0 0 20 20;" xml:space="preserve">
<style type="text/css">
	.st0{display:none;fill:#E51C20;}
	.st1{fill:#E51C20;}
	.st2{fill:none;}
	.st3{fill:#FFFFFF;}
</style>
<g>
	<path class="st0" d="M12.1,13.8C12.1,13.8,12.1,13.8,12.1,13.8L12.1,13.8C12,13.8,12,13.8,12.1,13.8c-0.1,0.7-0.7,1.3-1.4,1.3h2.6
		C12.6,15.1,12.1,14.5,12.1,13.8z"/>
	<path class="st1" d="M1.8,13.2c0-1,0.8-1.8,1.8-1.8c0.8,0,1.4,0.4,1.7,1.1h0.6c0.3-0.7,0.9-1.1,1.7-1.1c0.8,0,1.4,0.5,1.7,1.1
		l1.5,0v0c0,0,0,0,0,0c0.7,0,1.3,0.6,1.3,1.3h0.1c0-0.7,0.6-1.3,1.3-1.3c0.7,0,1.3,0.6,1.3,1.3h0.1l0-0.8h0.3l0,1.8l4,0l-1.8-2h-0.3
		v-0.3l-2.2,0v-0.2h0.1c0.2,0,0.4-0.2,0.4-0.4v-0.3h0.1c0.1,0,0.2-0.1,0.2-0.2l0-1.4c0-0.1-0.1-0.2-0.2-0.2h-0.1V9.7
		c0-0.2-0.2-0.4-0.4-0.4h-0.1l0-0.4l-1,0l0-1.8h0l1-1.8H15L15,5l0,0l0,0l0-0.6l-3.3,0l0,0.9h0.2l1,1.8h0l0,1.8h-1.4l0-0.4
		c0.1,0,0.2-0.1,0.2-0.2c0-0.1-0.1-0.2-0.2-0.2V8c0-0.2-0.2-0.4-0.4-0.4h-0.6c-0.2,0-0.4,0.2-0.4,0.4v0.1c-0.1,0-0.1,0.1-0.1,0.2
		c0,0.1,0.1,0.2,0.1,0.2v0.4l-1,0V7.6c0.1,0,0.2-0.1,0.2-0.2c0-0.1-0.1-0.2-0.2-0.2V7c0-0.2-0.2-0.4-0.4-0.4H8.3
		C8.1,6.7,7.9,6.8,7.9,7v0.2c-0.1,0-0.1,0.1-0.1,0.2c0,0.1,0.1,0.2,0.1,0.2l0,1.3l-2.3,0l0-2.2H6l0-0.9L1,5.7l0,0.9l0.4,0l0,3.4H1.2
		l0,0.6h0.1l0,3l0.4,0C1.8,13.5,1.8,13.4,1.8,13.2z M5.1,8.9H4.9v0l-1.1,0l0-2.2l1.3,0L5.1,8.9z M3.2,6.7l0,2.2l-1.3,0l0-2.2
		L3.2,6.7z"/>
	<path class="st1" d="M9.3,12.9c0,0.1,0,0.2,0,0.3c0,0.2,0,0.4-0.1,0.6h0.2c0-0.3,0.1-0.6,0.3-0.8L9.3,12.9z"/>
	<path class="st1" d="M5.7,12.9H5.3c0,0.1,0,0.2,0,0.3c0,0.2,0,0.4-0.1,0.6h0.5c-0.1-0.2-0.1-0.4-0.1-0.6C5.7,13.1,5.7,13,5.7,12.9z
		"/>
	<path class="st1" d="M5,13.2c0-0.1,0-0.2,0-0.3l-1.3,0c0.1,0.1,0.1,0.1,0.1,0.3c0,0.2-0.1,0.3-0.3,0.3c-0.2,0-0.3-0.1-0.3-0.3
		c0-0.1,0.1-0.3,0.3-0.3l0-0.4l1.3,0c-0.2-0.5-0.7-0.8-1.3-0.8c-0.8,0-1.5,0.7-1.5,1.5c0,0.8,0.7,1.5,1.5,1.5C4.4,14.7,5,14,5,13.2z
		"/>
	<path class="st1" d="M7.8,13.2c0,0.2-0.1,0.3-0.3,0.3c-0.2,0-0.3-0.1-0.3-0.3c0-0.1,0.1-0.2,0.1-0.3l-1.3,0c0,0.1,0,0.2,0,0.3
		c0,0.8,0.7,1.5,1.5,1.5C8.3,14.7,9,14,9,13.2c0-0.1,0-0.2,0-0.3l-1.3,0C7.7,13,7.8,13.1,7.8,13.2z"/>
	<path class="st1" d="M7.5,11.7c-0.6,0-1.1,0.3-1.3,0.8l2.6,0C8.6,12,8.1,11.7,7.5,11.7z"/>
	<path class="st1" d="M11.7,13.8c0-0.6-0.5-1-1-1c-0.6,0-1,0.5-1,1c0,0.6,0.5,1,1,1C11.3,14.8,11.7,14.4,11.7,13.8z M10.4,13.8
		c0-0.2,0.1-0.3,0.3-0.3c0.2,0,0.3,0.1,0.3,0.3c0,0.2-0.1,0.3-0.3,0.3C10.5,14.1,10.4,14,10.4,13.8z"/>
	<path class="st1" d="M13.4,12.8c-0.6,0-1,0.5-1,1c0,0.6,0.5,1,1,1c0.6,0,1-0.5,1-1C14.4,13.3,13.9,12.8,13.4,12.8z M13.7,13.8
		c0,0.2-0.1,0.3-0.3,0.3c-0.2,0-0.3-0.1-0.3-0.3c0-0.2,0.1-0.3,0.3-0.3C13.5,13.5,13.7,13.7,13.7,13.8z"/>
	<polygon class="st1" points="13.4,15.1 13.4,15.1 10.7,15.1 10.7,15.1 0,15.1 0,15.6 20,15.6 20,15.1 	"/>
</g>
<polygon class="st2" points="3.8,8.9 4.9,8.9 4.9,8.9 5.1,8.9 5.1,6.7 3.8,6.7 "/>
<rect x="1.9" y="6.7" class="st2" width="1.3" height="2.2"/>
<path class="st3" d="M13.4,13.5c-0.2,0-0.3,0.1-0.3,0.3c0,0.2,0.1,0.3,0.3,0.3c0.2,0,0.3-0.1,0.3-0.3C13.7,13.7,13.5,13.5,13.4,13.5
	z"/>
<path class="st3" d="M11,13.8c0-0.2-0.1-0.3-0.3-0.3c-0.2,0-0.3,0.1-0.3,0.3c0,0.2,0.1,0.3,0.3,0.3C10.9,14.1,11,14,11,13.8z"/>
<path class="st3" d="M13.4,12.5c-0.7,0-1.3,0.6-1.3,1.3c0,0,0,0,0,0c0,0.7,0.6,1.3,1.3,1.3h0c0.7,0,1.3-0.6,1.3-1.3c0,0,0,0,0,0
	C14.7,13.1,14.1,12.5,13.4,12.5z M14.4,13.8c0,0.6-0.5,1-1,1c-0.6,0-1-0.5-1-1c0-0.6,0.5-1,1-1C13.9,12.8,14.4,13.3,14.4,13.8z"/>
<path class="st3" d="M12,13.8C12,13.8,12,13.8,12,13.8c0-0.7-0.6-1.3-1.3-1.3c0,0,0,0,0,0v0l-1.5,0c-0.3-0.7-0.9-1.1-1.7-1.1
	c-0.8,0-1.4,0.4-1.7,1.1H5.2c-0.3-0.7-0.9-1.1-1.7-1.1c-1,0-1.8,0.8-1.8,1.8c0,0.2,0,0.3,0.1,0.5C2,14.4,2.7,15,3.6,15
	c0.8,0,1.5-0.5,1.7-1.2c0.1-0.2,0.1-0.4,0.1-0.6c0-0.1,0-0.1,0-0.3h0.4c0,0.1,0,0.2,0,0.3c0,0.2,0,0.4,0.1,0.6C6,14.5,6.7,15,7.5,15
	c0.8,0,1.5-0.5,1.7-1.2c0.1-0.2,0.1-0.4,0.1-0.6c0-0.1,0-0.1,0-0.3h0.5c-0.2,0.2-0.3,0.5-0.3,0.8c0,0,0,0,0,0c0,0.7,0.6,1.3,1.3,1.3
	h0C11.4,15.1,12,14.5,12,13.8z M3.6,14.7c-0.8,0-1.5-0.7-1.5-1.5c0-0.8,0.7-1.5,1.5-1.5c0.6,0,1.1,0.3,1.3,0.8l-1.3,0l0,0.4
	c-0.1,0-0.3,0.1-0.3,0.3c0,0.2,0.1,0.3,0.3,0.3c0.2,0,0.3-0.1,0.3-0.3c0-0.1-0.1-0.2-0.1-0.3l1.3,0c0,0.1,0,0.2,0,0.3
	C5,14,4.4,14.7,3.6,14.7z M7.5,11.7c0.6,0,1.1,0.3,1.3,0.8l-2.6,0C6.4,12,6.9,11.7,7.5,11.7z M9,13.2c0,0.8-0.7,1.5-1.5,1.5
	C6.7,14.7,6,14,6,13.2c0-0.1,0-0.2,0-0.3l1.3,0c-0.1,0.1-0.1,0.1-0.1,0.3c0,0.2,0.1,0.3,0.3,0.3c0.2,0,0.3-0.1,0.3-0.3
	c0-0.1-0.1-0.2-0.1-0.3l1.3,0C9,13,9,13.1,9,13.2z M9.7,13.8c0-0.6,0.5-1,1-1c0.6,0,1,0.5,1,1c0,0.6-0.5,1-1,1
	C10.1,14.8,9.7,14.4,9.7,13.8z"/>
</svg>
